<svg height="20" viewBox="0 0 21 20" width="21" xmlns="http://www.w3.org/2000/svg"><path d="m286.388001 443.226668c1.666625-1.587261 4.377026-1.587261 6.04365 0l1.510645 1.43871 1.510646-1.43871-1.510646-1.43871c-2.503141-2.383944-6.561798-2.383944-9.06494 0-2.503141 2.383944-2.503141 6.249332 0 8.633277l1.510645 1.43871 1.510646-1.43871-1.510646-1.43871c-1.666624-1.587261-1.666624-4.168596 0-5.755857zm15.734643 6.352097-1.510645-1.439727-1.510646 1.439727 1.510646 1.43871c1.665555 1.586244 1.665555 4.168596 0 5.755857-1.666625 1.586244-4.378094 1.586244-6.04365 0l-1.510645-1.439727-1.511714 1.439727 1.511714 1.43871c2.503141 2.383944 6.561798 2.383944 9.06494 0 2.503141-2.383944 2.503141-6.249332 0-8.633277zm-13.468675-5.632742 11.202707 10.668227-1.511714 1.439727-11.201638-10.669244z" fill-rule="evenodd" transform="translate(-283 -440)"/></svg>