<?xml version="1.0" encoding="utf-8"?>
<!-- Generator: Adobe Illustrator 28.2.0, SVG Export Plug-In . SVG Version: 6.00 Build 0)  -->
<svg version="1.1" id="Layer_1" xmlns="http://www.w3.org/2000/svg" xmlns:xlink="http://www.w3.org/1999/xlink" x="0px" y="0px"
	 viewBox="0 0 2279.5 2105.5" style="enable-background:new 0 0 2279.5 2105.5;" xml:space="preserve">
<style type="text/css">
	.st0{fill:#FFFFFF;}
	.st1{fill:#ECB731;}
	.st2{fill:#1C7553;}
	.st3{fill:#FADF3C;}
</style>
<g>
	<g id="XMLID_00000150072197909169189980000017659353111287741111_">
		<g>
			<path class="st0" d="M301.4,890.4l0.1,380.3c-38.3-54.4-89.4-160-86.3-206c-3.2,9.8-5.5,19.9-7,30.1
				c-20.2-22.1-33-62.9-41.6-98.1c18,24.9,40.5,40.1,61.8,41.2c-45.1-65.1-32.9-205.7-13.4-255c5.4,66.4,23.5,116.9,66.1,138.6
				c-8.8-15.9-7.6-45.1-5.6-62.2C282.5,870.2,289.9,881.1,301.4,890.4z"/>
			<path class="st0" d="M2247.2,1140.3c19,20.1,18.5,64.2-13.2,82.2c-44.1,25.1-96.7,14.6-106.2-12.8c11.9,0.5,23.5-3.7,32.3-11.7
				c8.9-7.9,11.5-16.5,10.4-26.3C2197.6,1173.9,2229.2,1161.6,2247.2,1140.3z"/>
			<path class="st0" d="M2236.4,1243.3c13.6,28.7-8.8,53.5-57.7,54.9c-55.2,1.6-78.2-25.5-45.7-53.2
				C2158.2,1260.6,2197.1,1261.7,2236.4,1243.3z"/>
			<path class="st0" d="M2144,1097.9c15.8-13.4,43.7-21.5,58.2-20.7c-16.8-9.5-42.5-5.5-61,10.3c-2.3-9.1-3.8-36.1-6.5-46.4
				c43.7-22,109.8,8,109.8,60.5c0,37.3-44.8,58.3-76.8,57.1C2162.2,1142.5,2151.5,1122.9,2144,1097.9z"/>
			<path class="st0" d="M2119.8,1049.6c1.9,83.9,48.8,118.6,29.2,136.6c-40.3,37.1-116.3-53.9-65.5-93.2
				c-56.2,21.9-22.4,91.4,22.3,111.4c1.8,11.2,8.9,24.5,15.7,32.3c-23.4,19.3-29.8,60,11.1,72.7c-44.4,13.7-130.6-1.6-167.6-64.7
				c0.8,20,12.5,38.6,31.1,53.3c-61,15.9-150.2,22-215.2,14.1c-2-55.8,32.8-128.9,128.1-175.9c14.7-4.3,29.1-9.4,43.3-15.1
				c1,15.5,6,30.3,16,42.9c-12.8-67.1,16.1-114.4,55.2-140.5C2052,1004.6,2118.3,1027.6,2119.8,1049.6z"/>
			<path class="st1" d="M2094.1,581.5c39.9,0,67.3,24.5,67.3,58c0,77.9-126.3,118.1-249.2,134.9c67-65.6,140.6-159.6,217-129.6
				c-83.3-72.6-209.4,119.4-284.6,161.7c-84.4,47.5-285.4,13.3-285.4,80.8c0,25.2,37.7,55.8,62.3,80.3
				c40.9,40.9,67.2,105.3,127.5,105.3c67.9,0,111.2-93.4,28-226.9c7.6-1.2,15.1-2.7,22.6-4.5c55,108.4,70.5,257.8-45.7,257.8
				c-66.5,0-101.7-63.1-151.5-117.2c-41.4-44.9-111-95.8-111-123.3c0-63.5,82.7-58.5,167.4-81.1c44.3-11.8,109.1-64.3,132.3-110.2
				c19.9,6.8,48.3,2.2,63-18.6c15.1,14.1,39.1,19.6,55.1,8.3c5.5,3.7,12.4,7.2,18.8,9.5c-19.9,20-37.3,40.7-49.7,60.3
				C1928.1,676.8,2045.8,581.5,2094.1,581.5z M1830.9,714.9c-15.1-6.7-38-5.2-35.3,10.4C1797,733.9,1820.8,736.4,1830.9,714.9z"/>
			<path class="st2" d="M1967,399.5c39.9,24.2,27.3,53.1-1.6,57C1970.1,436.5,1970.3,417.4,1967,399.5z"/>
			<path class="st3" d="M1905.7,323.7c37.8,33.4,58.2,82.4,48.3,133.8c-93.9,4.4-282.4-75.3-331.1-145.5
				c40.9-41.2,97.9-54.1,153.1-46.8c-3.5,20.1,17.8,46.2,51.1,60.9C1859.7,340.5,1892.7,339,1905.7,323.7z"/>
			<path class="st2" d="M1619.8,327.1c191.8,147.5,333.9,142.1,333.9,142.1c-38.8,29.1-47.1,79.5-48,79.5
				c-97.1,6.7-292.9-132.8-292-133C1628.9,412.7,1627.1,353.8,1619.8,327.1z M1900.2,534.4l20.6-54l-12.9-2.1l-9.9,25.8l-4.6-28.1
				l-12.1-1.7l-19.3,54l12.9,2.1l7.6-19.9l6.1,22L1900.2,534.4z M1865.3,473.3l-3.5-6.4l-23.4-8.3l-6.5,2.7l-15.9,48.1l3.5,6.4
				l23.4,7.5l6.5-2.7L1865.3,473.3z M1819.1,456l-3.6-6.5l-28.7-11.8l-6.5,2.6l-14.1,48.9l3.6,6.5l26.5,10.5l6.5-2.6l9.2-26
				l-16.2-6.3l-2.4,7.5l3.5,1.4l-3.5,10.8c0,0,0,0.1,0,0.1c-0.3,0.7-1.2,1.1-1.9,0.8l-9.2-3.5c-0.8-0.3-1.2-1.2-1-2l9.5-33
				c0,0,0-0.1,0.1-0.1c0.3-0.7,1.1-1.1,1.8-0.8l10.1,4.4c0.8,0.3,1.2,1.2,1,2l-1.6,4.8l12.7,4.9L1819.1,456z M1763.4,438.8l2.8-10.9
				l-27.5-13.1l-15.2,58.3l27.5,13.1l2.9-11.1l-15.3-7.1l3.3-12.6l15.3,7.1l2.7-10.6l-15.3-7.1l3.4-13.2L1763.4,438.8z
				 M1725.1,412.1l-3.8-7.4l-31.3-18l-12.9,54.4c3.3,2.7,7.5,6.1,11.6,9.6l5-21.1l8.1,4.6l3.2,5.1l-4.6,19.2l12,6.8l5.9-24.8l-3-5
				l4.8-2.5L1725.1,412.1z M1677.4,383l-4.2-8.1l-26.7-18.3l-5.7,1.3l-10.3,47.6l4.2,8.1l10,6.8c7.2,3.5,14,7.5,19.2,10.8l3.2-0.7
				L1677.4,383z"/>
			<path class="st2" d="M1942.8,1319.7c0.6-0.1-37.4,95-129.9,79.5c-18.2-3-39.5-68.6-32.2-81.9
				C1836.6,1330.7,1893.6,1327.6,1942.8,1319.7z"/>
			<polygon class="st3" points="1920.8,480.4 1900.2,534.4 1888.6,532.5 1882.5,510.6 1874.9,530.4 1862,528.3 1881.3,474.3 
				1893.4,476 1898,504.2 1907.9,478.3 			"/>
			<path class="st0" d="M1901,558.5c10.9,24.6,15.9,65.9,2.5,82.8c-6.9,8.8-25.8,13.8-43.9-2.7c9.3-24.1-1.4-54.5-37.9-63.6
				c41.1,31,30,80.4-12.2,80.4c-75.1,0-110.4-179.9-190.9-179.9c-44.5,0-77.1,37.1-75.5,72.9c8.7-20.7,21.8-38.2,39.4-48.3
				c12.8,64.7-64.1,213.5,29.8,274c-58.5,11.4-118.7,19-134.8,59.2c-13.7-32.1-9.7-96,4.1-125.9c-10.7,8-19.6,26.2-24.2,47.9
				c0,0-0.1,0-0.1-0.1l-0.1-210.4l0-33.6c4,0.8,8.2,1.2,12.5,1c-14.7-24-9.3-66.6-2.3-84.4c2.3,22.5,15.5,42.6,29.4,55
				c-3.9-21.7,0.7-40.6,6.3-47.4c1.4,7.5,9.8,18.1,18.2,21.6c-16.1,34.6-14.1,79.2,9.3,105.7c-25.6-58.3,5.3-138,62.2-138
				c58.2,0,145.7,89.9,177.4,159.1c-5.7-25-16.2-49.3-29.7-71.5C1784.1,537.3,1850.6,559.2,1901,558.5z"/>
			<path class="st2" d="M1900.9,297.6c3,5,9.7,27.9-32.8,30.2c-20.7,1.1-41.4-9.3-57.7-20.6c-29.8-20.6-30.3-37.7-15.2-49
				c7.9-5.9,26.9-9.8,51-0.6C1863.9,264.2,1895.6,288.8,1900.9,297.6z"/>
			<path class="st3" d="M1861.8,466.9l3.5,6.4l-15.9,47.2l-6.5,2.7l-23.4-7.5l-3.5-6.4l15.9-48.1l6.5-2.7L1861.8,466.9z
				 M1852.3,476.9c0.3-0.8-0.1-1.7-0.9-2l-8.4-2.9c-0.8-0.3-1.6,0.1-1.9,0.8c0,0,0,0.1,0,0.1l-10.8,32.5c-0.3,0.8,0.2,1.7,1,2
				l8.4,2.9c0.8,0.3,1.6-0.1,1.9-0.8c0,0,0-0.1,0-0.1L1852.3,476.9z"/>
			<path class="st2" d="M1851.3,474.9c0.8,0.3,1.2,1.2,0.9,2l-10.8,32.5c0,0,0,0.1,0,0.1c-0.3,0.8-1.1,1.1-1.9,0.8l-8.4-2.9
				c-0.8-0.3-1.2-1.2-1-2l10.8-32.5c0,0,0-0.1,0-0.1c0.3-0.8,1.1-1.1,1.9-0.8L1851.3,474.9z"/>
			<path class="st2" d="M1816.8,1152.1c8.4,0,40-6.7,52.5-8.5c-46.1,25.8-151.8,152.4-65,259.2c-10.8-0.6-34.7-0.1-42.5-3
				C1691.2,1312.5,1745.8,1196,1816.8,1152.1z"/>
			<path class="st3" d="M1815.5,449.5l3.6,6.5l-4,12.6l-12.7-4.9l1.6-4.8c0.2-0.8-0.2-1.7-1-2l-10.1-4.4c-0.7-0.3-1.6,0-1.8,0.8
				c0,0,0,0.1-0.1,0.1l-9.5,33c-0.2,0.8,0.2,1.7,1,2l9.2,3.5c0.7,0.3,1.6,0,1.9-0.8c0,0,0-0.1,0-0.1l3.5-10.8l-3.5-1.4l2.4-7.5
				l16.2,6.3l-9.2,26l-6.5,2.6l-26.5-10.5l-3.6-6.5l14.1-48.9l6.5-2.6L1815.5,449.5z"/>
			<path class="st0" d="M1795.6,725.3c-2.6-15.5,20.2-17,35.3-10.4C1820.8,736.4,1797,733.9,1795.6,725.3z"/>
			<path class="st3" d="M1764.5,1153.7c13.8-0.2,27.5-1.2,41.2-3c-46.1,25.8-134.7,144.5-55,249.2c-10.8-0.6-32.4-1.2-40.2-4.2
				C1639.8,1308.3,1693.5,1197.5,1764.5,1153.7z"/>
			<polygon class="st3" points="1766.3,427.9 1763.4,438.8 1748.1,431.7 1744.7,444.8 1760,452 1757.3,462.6 1741.9,455.4 
				1738.7,468 1754,475.1 1751.1,486.3 1723.6,473.1 1738.7,414.8 			"/>
			<path class="st1" d="M1764.2,848c75.7,118.5,40.8,210.6-15.3,210.6c-47.1,0-74.2-58.3-116.8-100.9
				c-29.7-29.7-57.3-52.6-57.3-71.2c0-16.3,23.8-22.8,58.5-26.7c38.1,32.9,61.7,97.2,84.6,97.2c21.3,0,26.6-65.8,10.3-104.9
				C1740.2,851.1,1752.2,849.7,1764.2,848z"/>
			<path d="M1764.5,1153.7c-71,43.9-124.7,154.7-54,242.1c7.8,3,29.4,3.6,40.2,4.2c-79.7-104.8,8.9-223.5,55-249.2
				C1792,1152.4,1778.2,1153.4,1764.5,1153.7z M1457.5,1231l0-24.2c14.7,6.4,32.7,6.3,43.8,3.4c27-7,40-71.4,26.9-89.2
				c-9.1-12.3-48.7-0.7-70.7,13.9v-10.5c79.5-21.1,62.1-142.8,57.9-176.8l2.9-0.4c4.4,15.5,6.6,32.6,6.8,50.2
				c36.4,53.2,102.7,122.5,141.9,134.9c86.1,27.2,195.8,5.3,285.4-24c2.6-40.5,29.2-82.6,60.9-100.6c33.4-20.2,94.8-6.5,115.4,21.5
				c72.7-42.3,156.4,29,127.3,99.2c27.1,22.9,36.6,77.8-3.4,105.9c20.8,48.1-15.9,83.9-98.2,81.2c-40.5,25.4-100.6,17-141.7-6.3
				c-17.3,7.2-39.7,12.7-64.4,16.5c-14.3,44.2-60,77.8-102.8,81.2C1771.7,1412.7,1578.2,1431.4,1457.5,1231z M1457.7,1219
				c105.6,163.9,238,174.8,238,174.8c-85.7-155.7,62.5-239.4,64.3-240.4c-98.4,23-223.4-81.4-231.9-139.6c0,0-14.6,92.1-35.2,100.8
				c1.2-0.4,24.5-7.2,35.2-4.8c20.2,4.5,16.5,24.7,13.4,51c-3.7,30.4-8.5,40.1-26.7,54.7C1514.8,1215.3,1457,1218,1457.7,1219z
				 M2233.9,1222.6c31.7-18,32.2-62.1,13.2-82.2c-18,21.3-49.6,33.6-76.6,31.4c1.1,9.8-1.5,18.4-10.4,26.3
				c-8.8,8-20.4,12.2-32.3,11.7C2137.2,1237.1,2189.8,1247.7,2233.9,1222.6z M2178.7,1298.2c48.9-1.4,71.3-26.2,57.7-54.9
				c-39.3,18.4-78.3,17.4-103.4,1.7C2100.4,1272.7,2123.5,1299.8,2178.7,1298.2z M2202.1,1077.3c-14.4-0.9-42.4,7.2-58.2,20.7
				c7.6,25,18.2,44.6,23.6,60.8c32,1.3,76.8-19.7,76.8-57.1c0-52.6-66-82.5-109.8-60.5c2.8,10.3,4.3,37.4,6.5,46.4
				C2159.7,1071.8,2185.3,1067.8,2202.1,1077.3z M2149.1,1186.2c19.5-18-27.4-52.7-29.2-136.6c-1.5-22.1-67.8-45-96.3-26
				c-39.1,26.1-68,73.4-55.2,140.5c-10-12.6-14.9-27.4-16-42.9c-14.2,5.7-28.6,10.8-43.3,15.1c-95.3,47-130.1,120.1-128.1,175.9
				c65,7.9,154.2,1.8,215.2-14.1c-18.6-14.7-30.3-33.3-31.1-53.3c36.9,63.1,123.1,78.3,167.6,64.7c-40.9-12.7-34.5-53.4-11.1-72.7
				c-6.8-7.8-13.9-21.1-15.7-32.3c-44.7-20-78.5-89.5-22.3-111.4C2032.8,1132.2,2108.8,1223.3,2149.1,1186.2z M1812.9,1399.3
				c92.6,15.4,130.5-79.6,129.9-79.5c-49.2,7.9-106.3,10.9-162.1-2.4C1773.4,1330.7,1794.7,1396.2,1812.9,1399.3z M1869.4,1143.7
				c-12.6,1.8-44.2,8.5-52.5,8.5c-71,43.8-125.6,160.3-54.9,247.8c7.8,3,31.7,2.4,42.5,3C1717.6,1296.1,1823.2,1169.4,1869.4,1143.7
				z"/>
			<path class="st2" d="M1528.1,1013.8c8.5,58.3,133.6,162.7,231.9,139.6c-1.8,1-150,84.7-64.3,240.4c0,0-132.4-10.9-238-174.8
				c-0.7-1,57.1-3.6,57.1-3.6c18.2-14.6,23.1-24.3,26.7-54.7c3.2-26.3,6.8-46.5-13.4-51c-10.6-2.4-33.9,4.5-35.2,4.8
				C1513.6,1105.9,1528.1,1013.8,1528.1,1013.8z"/>
			<path class="st3" d="M1721.4,404.7l3.8,7.4l-5,21l-4.8,2.5l3,5l-5.9,24.8l-12-6.8l4.6-19.2l-3.2-5.1l-8.1-4.6l-5,21.1
				c-4.1-3.5-8.3-7-11.6-9.6l12.9-54.4L1721.4,404.7z M1711,413c0.2-0.9-0.3-1.8-1.1-2.3l-8.9-5.1c-0.8-0.4-1.6-0.1-1.8,0.7l-3.1,11
				c-0.2,0.9,0.3,1.8,1.1,2.3l8.9,5.1c0.8,0.4,1.6,0.1,1.8-0.7L1711,413z"/>
			<path d="M1648.9,858.3c37.4,31.5,54.9,81.8,68.4,81.8c8.1,0,9.6-58.5-2-86.7C1691.8,855.2,1669.1,856.5,1648.9,858.3z
				 M2094.8,562.8c58.8,0,83.9,33.8,83.9,76.7c0,104.2-174.9,144.4-280.4,149.5c-14.4,13-31.7,25.7-45.4,33.2
				c-11.5,6.5-26.4,13.2-40.7,17.3c68.6,133.7,62.3,276.8-57.4,276.8c-80.2,0-117.6-72-164.8-123.6c-15.2-16.6-36.9-36-57.6-55.5
				c-4.6,3-9.3,6.3-14.1,9.9l-2.9,0.4c-0.1-1.1-0.3-2.1-0.4-3c-10,12.8-25.3,23.2-33,36.4c7.1,21-11.1,99.6-24.6,134.2v-20.9
				c20-39.6,17.7-85.4,14.9-109.6c-3.4,4.4-8.9,12-14.9,20.6l0-21c20-22.6,43.4-42.4,65.4-56c-35.3-34.9-51.1-54.1-49.7-75
				c-7.7-9.7-12.8-21.6-15.8-34.3l0-50.7v-13c0,0,0.1,0,0.1,0.1c4.6-21.7,13.5-39.9,24.2-47.9c-13.8,29.9-17.8,93.8-4.1,125.9
				c16.1-40.2,76.2-47.8,134.8-59.2c-93.9-60.5-17-209.3-29.8-274c-17.7,10.1-30.8,27.6-39.4,48.3c-1.6-35.8,31-72.9,75.5-72.9
				c80.5,0,115.8,179.9,190.9,179.9c42.2,0,53.3-49.3,12.2-80.4c36.5,9.1,47.2,39.5,37.9,63.6c18.1,16.5,37,11.5,43.9,2.7
				c13.4-17,8.4-58.2-2.5-82.8c-50.4,0.7-116.9-21.2-160.4-46.1c13.5,22.1,24,46.4,29.7,71.5c-31.7-69.2-119.2-159.1-177.4-159.1
				c-56.9,0-87.8,79.8-62.2,138c-23.4-26.6-25.4-71.1-9.3-105.7c-8.3-3.5-16.8-14.1-18.2-21.6c-5.7,6.8-10.2,25.7-6.3,47.4
				c-13.9-12.4-27.1-32.5-29.4-55c-7,17.8-12.4,60.4,2.3,84.4c-4.3,0.2-8.5-0.2-12.5-1l0-90.2c4.4-10.2,9.9-18.3,15.7-23.6
				c-0.9,22.4,7.5,45.1,15.1,56c-1.2-17.9,9.4-38.1,19.1-44.2c0.3,18.6,8.7,32.1,19.1,38.5c18.4-30.9,42-46.1,83.2-39.2
				c20.1-62.2-22.8-109-6.8-143.6c11.7-25.3,60.8-25.1,86.7-8.2c29.1-8.6,60.2-8.8,91.4-2.3c12.7-15.8,46-17.5,79.1-2.9
				c32.8,14.5,54,40,51.2,60c25.2,19.6,44.1,45.4,52.8,75.2c54.3,21.1,53.8,65.6,16.1,80.6c-27.7,17.5-55.8,41.7-70,88.5
				c16,27.9,21.6,68.4,8.6,90.6c5.6,4.2,13.3,7.3,20,9.4C1981.2,615.7,2050.3,562.8,2094.8,562.8z M2161.4,639.4
				c0-33.4-27.4-57.9-67.3-58c-48.3,0-166,95.4-216.1,145.5c12.4-19.6,29.8-40.4,49.7-60.3c-6.4-2.2-13.3-5.8-18.8-9.5
				c-16,11.4-40,5.8-55.1-8.3c-14.7,20.8-43,25.5-63,18.6c-23.3,45.9-88,98.4-132.3,110.2c-84.6,22.6-167.4,17.5-167.4,81.1
				c0,27.5,69.6,78.4,111,123.3c49.8,54.1,85,117.2,151.5,117.2c116.1,0,100.7-149.4,45.7-257.8c-7.5,1.7-15,3.2-22.6,4.5
				c83.2,133.5,39.9,226.9-28,226.9c-60.3,0-86.6-64.4-127.5-105.3c-24.5-24.5-62.3-55.1-62.3-80.3c0-67.6,201.1-33.4,285.4-80.8
				c75.2-42.3,201.3-234.3,284.6-161.7c-76.4-30-150,64-217,129.6C2035,757.5,2161.4,717.4,2161.4,639.4z M1965.4,456.5
				c28.9-3.8,41.5-32.7,1.6-57C1970.3,417.4,1970.1,436.5,1965.4,456.5z M1954,457.5c10-51.4-10.5-100.4-48.3-133.8
				c-13,15.3-46,16.8-78.7,2.4c-33.3-14.7-54.6-40.8-51.1-60.9c-55.3-7.3-112.2,5.6-153.1,46.8
				C1671.5,382.2,1860.1,461.9,1954,457.5z M1953.7,469.2c0,0-142.1,5.4-333.9-142.1c7.3,26.7,9.1,85.6-6.1,88.6
				c-0.8,0.2,194.9,139.6,292,133C1906.6,548.7,1914.9,498.3,1953.7,469.2z M1868.1,327.7c42.5-2.2,35.8-25.1,32.8-30.2
				c-5.3-8.7-37-33.4-54.6-40.1c-24.1-9.2-43.1-5.3-51,0.6c-15.1,11.3-14.6,28.4,15.2,49C1826.7,318.4,1847.5,328.8,1868.1,327.7z
				 M1748.9,1058.6c56.1,0,91-92.1,15.3-210.6c-12,1.7-24,3-36,4.1c16.3,39.1,11.1,104.9-10.3,104.9c-22.9,0-46.4-64.3-84.6-97.2
				c-34.7,3.9-58.5,10.4-58.5,26.7c0,18.7,27.6,41.6,57.3,71.2C1674.7,1000.3,1701.8,1058.6,1748.9,1058.6z M1705.4,736.2
				c-24.7-38.3-2.6-101.4,29.4-117.3c-40.1-53.2-74.2-128.2-116.7-128.2c-8.2,0-18.8,2.6-25.9,4.9c26,73.8-62,206.4,33.5,274.9
				C1660.1,763.1,1677.5,756.3,1705.4,736.2z M1674.6,262c-23.3-8.4-52.8-8.1-60.7,9.9c-3.6,8.1-0.2,24,3.1,30.5
				C1634.5,283.8,1653.9,270.5,1674.6,262z"/>
			<path class="st0" d="M1717.3,940c-13.5,0-31-50.2-68.4-81.8c20.2-1.8,43-3.1,66.4-5C1726.8,881.6,1725.3,940,1717.3,940z"/>
			<path class="st2" d="M1710,410.7c0.8,0.5,1.2,1.4,1.1,2.3l-3.1,11c-0.2,0.8-1,1.1-1.8,0.7l-8.9-5.1c-0.8-0.5-1.2-1.4-1.1-2.3
				l3.1-11c0.2-0.8,1-1.1,1.8-0.7L1710,410.7z"/>
			<path class="st0" d="M1734.8,618.9c-32,15.8-54.2,79-29.4,117.3c-27.8,20.2-45.3,27-79.6,34.3c-95.5-68.5-7.5-201.1-33.5-274.9
				c7-2.3,17.7-4.9,25.9-4.9C1660.6,490.7,1694.7,565.8,1734.8,618.9z"/>
			<path class="st3" d="M1673.2,375l4.2,8.1l-10.3,47.6l-3.2,0.7c-5.2-3.4-12-7.3-19.2-10.8l-10-6.8l-4.2-8.1l10.3-47.6l5.7-1.3
				L1673.2,375z M1663.7,382.5c0.1-0.8-0.4-1.9-1.2-2.5l-9-6.2c-0.8-0.5-1.5-0.3-1.7,0.5l-7.7,31.7c-0.2,0.8,0.4,1.9,1.2,2.5l9,6.2
				c0.8,0.5,1.5,0.3,1.7-0.5L1663.7,382.5z"/>
			<path d="M1655.6,1619.8c-1.8,29,27.4,49,18.3,94.9c-10.1,50.8-36.3,61.7-92.2,104.6c-91.2,70.1-327,139-418,92.2l17.9-7
				c87.8,32,304.3-30.9,393.5-98.4c33.2-25.1,76.8-53.9,84.4-94.8c7.2-38.7-18.5-48-15.7-92.2c3.4-51.7,22.4-81.5-8.1-115.8
				c-38.8-43.7-81.1-13.6-124.9-20.2c-23.3-3.5-37.2-15.4-53.4-22.2l0-13.5c18.2,8.2,32.6,23.1,56.1,26.6
				c33.2,4.9,90-28.4,133.7,20.9C1680,1531.8,1658.4,1573.9,1655.6,1619.8z"/>
			<path class="st2" d="M1662.6,380.1c0.8,0.5,1.3,1.6,1.2,2.5l-7.7,31.7c-0.1,0.8-0.9,1-1.7,0.5l-9-6.2c-0.8-0.5-1.3-1.6-1.2-2.5
				l7.7-31.7c0.2-0.8,0.9-1.1,1.7-0.5L1662.6,380.1z"/>
			<path class="st1" d="M1643.9,1619.2c-2.8,44.1,22.8,53.5,15.7,92.2c-7.6,41-51.2,69.7-84.4,94.8
				c-89.2,67.5-305.8,130.4-393.5,98.4l165.1-64.1l110.9-182.4l-0.1-197.1c16.2,6.8,30.1,18.7,53.4,22.2
				c43.8,6.6,86.1-23.5,124.9,20.2C1666.3,1537.7,1647.3,1567.5,1643.9,1619.2z"/>
			<path class="st2" d="M1613.9,272c7.9-18,37.4-18.3,60.7-9.9c-20.7,8.5-40.1,21.7-57.6,40.4C1613.7,296,1610.3,280.1,1613.9,272z"
				/>
			<path class="st3" d="M1528.1,1121c13.2,17.8,0.1,82.2-26.9,89.2c-11.1,2.9-29.1,3-43.8-3.4l0-44.5c0.6-5,0.6-9.6,0-13.7l0-13.6
				C1479.4,1120.3,1519,1108.7,1528.1,1121z"/>
			<path class="st2" d="M1515.4,947.6c4.2,34,21.6,155.7-57.9,176.8l0-9.2c13.5-34.6,31.7-113.2,24.6-134.2
				c7.7-13.2,23-23.7,33-36.4C1515.1,945.5,1515.2,946.5,1515.4,947.6z M1483.5,1101c18.9-11.8,25.9-69.5,20.2-87.7
				C1503.1,1030.9,1495.5,1080.4,1483.5,1101z"/>
			<path d="M1503.7,1013.3c5.7,18.2-1.3,75.9-20.2,87.7C1495.5,1080.4,1503.1,1030.9,1503.7,1013.3z"/>
			<path class="st0" d="M1473.1,853.2c-1.4,20.9,14.4,40.1,49.7,75c-22,13.6-45.4,33.4-65.4,56l-0.1-165.3
				C1460.3,831.7,1465.4,843.5,1473.1,853.2z"/>
			<path class="st3" d="M1472.3,984.6c2.8,24.3,5.1,70-14.9,109.6l0-89C1463.4,996.6,1468.9,989,1472.3,984.6z"/>
			<path class="st1" d="M1457.5,1461l0.1,197.1l-110.9,182.4l-165.1,64.1c-6.8-2.5-12.8-5.5-17.9-9.1l176-70.6l101.2-165.2l0-203.2
				C1447,1457.2,1452.4,1458.8,1457.5,1461z"/>
			<path d="M1457.4,1148.5c0.6,4.1,0.6,8.7,0,13.7V1148.5z"/>
			<path d="M1457.5,1447.5l0,13.5c-5.2-2.2-10.6-3.8-16.6-4.5v-13.9C1447,1443.4,1452.4,1445.2,1457.5,1447.5z"/>
			<path class="st2" d="M1457.5,1231l0.1,216.5c-5.1-2.3-10.6-4.1-16.6-4.9l0-218.2c1.6-3.4,3.2-6.8,4.7-10.3c1,0.6,2,1.1,3,1.6
				C1451.5,1220.9,1454.5,1226,1457.5,1231z"/>
			<path d="M1457.4,1206.8l0,24.2c-3-5-5.9-10.1-8.8-15.3c-1-0.5-2-1.1-3-1.6c-1.5,3.4-3.1,6.9-4.7,10.3V1197h2.2
				C1447.1,1201.2,1452.1,1204.4,1457.4,1206.8z"/>
			<path class="st3" d="M1457.4,1162.3l0,44.5c-5.4-2.3-10.3-5.6-14.3-9.8c6.3-7.6,11.1-17.4,13.5-29.5
				C1457,1165.7,1457.2,1163.9,1457.4,1162.3z"/>
			<path d="M1457.4,1148.5v13.7c-0.2,1.7-0.5,3.4-0.8,5.1c-2.3,12.1-7.2,21.9-13.5,29.5h-2.2l0-23.6c0.8-2.3,1.4-4.8,1.9-7.4
				c1.3-7.3,0.5-13.7-1.9-19v-27.9c6.7-7.8,12.1-16.1,16.4-24.7v20.9c-1.6,4.1-3.1,7.6-4.5,10.3c1.5-0.3,3.1-0.7,4.5-1.1v10.5
				c-1.1,0.8-2.2,1.5-3.3,2.3C1455.7,1140.5,1456.9,1144.3,1457.4,1148.5z"/>
			<path class="st3" d="M1457.4,1134.9l0,13.6c-0.6-4.2-1.7-8-3.3-11.4C1455.2,1136.4,1456.3,1135.7,1457.4,1134.9z"/>
			<path class="st2" d="M1457.4,1115.2l0,9.2c-1.5,0.4-3,0.8-4.5,1.1C1454.3,1122.8,1455.8,1119.3,1457.4,1115.2z"/>
			<path class="st3" d="M1457.4,1005.3l0,89c-4.3,8.6-9.8,16.9-16.4,24.7l0-89.5C1446.2,1021.6,1452,1013,1457.4,1005.3z"/>
			<path d="M1457.4,984.2l0,21c-5.4,7.7-11.2,16.3-16.4,24.1v-25C1446.1,997.5,1451.6,990.8,1457.4,984.2z"/>
			<path class="st0" d="M1457.3,819l0.1,165.3c-5.8,6.5-11.3,13.3-16.4,20.2l0-200.5c4.6-5.6,8.9-10.8,12.9-15.2
				C1453.9,799,1455,809.3,1457.3,819z"/>
			<path d="M1457.3,768.2l0,50.7c-2.3-9.7-3.4-20-3.4-30.2c-4,4.4-8.3,9.6-12.9,15.2l0-22.5c4.5-4.5,9.2-8.8,14.1-13l0-0.3H1457.3z"
				/>
			<path d="M1457.3,755.2v13h-2.1c-5.2-3-9.9-6.5-14.2-10.2v-19.1C1445.7,745.2,1451.1,750.7,1457.3,755.2z"/>
			<path class="st0" d="M1457.2,544.8l0.1,210.4c-6.2-4.5-11.7-10-16.3-16.3l0-176.5c4.2-7.1,8.9-13.1,13.9-17.5H1457.2z"/>
			<path class="st0" d="M1457.2,511.2l0,33.6h-2.2c-5.7-3.4-10.3-8.1-13.9-13.4l0-26.1C1445.9,507.9,1451.4,510,1457.2,511.2z"/>
			<path d="M1457.2,421.1l0,90.2c-5.8-1.2-11.3-3.3-16.2-5.9v-15.6c3.8,1.8,7.4,3,10.3,3.4C1444.9,466.4,1449,440.2,1457.2,421.1z"
				/>
			<path class="st2" d="M1455.2,768.2l0,0.3c-4.9,4.1-9.6,8.5-14.1,13V758C1445.3,761.8,1450,765.2,1455.2,768.2z"/>
			<path class="st3" d="M1441,1146.9c2.4,5.3,3.2,11.7,1.9,19c-0.5,2.6-1.1,5.1-1.9,7.4V1146.9z"/>
			<path d="M1455,544.8c-5.1,4.5-9.7,10.4-13.9,17.5v-30.9C1444.7,536.7,1449.3,541.4,1455,544.8z"/>
			<path class="st0" d="M1319.7,213.5l121.4,155l0,121.2c-4.4-2.1-9.2-5-13.8-8.2l-0.1-105.7l-108.1-143.9L743.6,51.2
				c-53.5,60-103.7,123.7-155.4,184.1v1550.2l189.7,231.7l353.3-139.2c2,4.7,4.8,9.4,8.3,14.1c2.6,3.4,5.7,6.6,9,9.5l-70.1,28.1
				l-318.9,123.8l-3.7,1.9l-212.5-256V215.8L657.7,78.2l52.4-60L835,56.5L1319.7,213.5z"/>
			<path d="M1441.1,489.7v15.6c-4.4-2.3-8.4-5.1-11.6-7.8h-2.1l0-16C1431.9,484.8,1436.6,487.7,1441.1,489.7z"/>
			<path class="st0" d="M1441.1,505.3l0,26.1c-7.2-10.5-10.6-23.6-11.6-33.8C1432.7,500.3,1436.6,503,1441.1,505.3z"/>
			<path d="M1441.1,531.4v30.9c-5.4,9.2-10,20.2-13.7,32.4l0-33.8c3.3-5.7,6.9-10.5,10.6-14.4c-4.1-3.2-7.7-7.7-10.7-12.8l0-36.2
				h2.1C1430.5,507.8,1433.9,520.9,1441.1,531.4z"/>
			<path class="st0" d="M1441.1,562.3l0,176.5c-5.7-7.7-10.1-16.6-13.6-26.2l-0.1-117.9C1431,582.5,1435.6,571.5,1441.1,562.3z"/>
			<path d="M1441,738.9V758c-5.1-4.5-9.6-9.5-13.5-14.9l0-30.4C1430.9,722.3,1435.4,731.2,1441,738.9z"/>
			<path class="st0" d="M1441,758v23.5c-3.3,3.2-6.4,6.6-9.5,10c-1.2-3.4-2.6-6.9-4-10.4l0-38C1431.4,748.5,1435.9,753.5,1441,758z"
				/>
			<path d="M1441,781.5l0,22.5c-4.3,5.3-8.8,11.1-13.5,17.3l0-19.5l0-20.7c1.5,3.5,2.8,7,4,10.4C1434.6,788,1437.8,784.7,1441,781.5
				z"/>
			<path class="st0" d="M1441,804l0,200.5c-4.8,6.6-9.3,13.3-13.4,20.1l-0.1-203.2C1432.2,815.2,1436.7,809.3,1441,804z"/>
			<path d="M1441,1004.5v25c-5.6,8.5-10.5,16.1-13.3,20.9l0-25.8C1431.7,1017.7,1436.2,1011,1441,1004.5z"/>
			<path class="st3" d="M1441,1029.4l0,89.5c0,0-0.1,0.1-0.1,0.1c-0.8-20.9-5.6-43.2-13.2-66.1v-2.7
				C1430.5,1045.5,1435.4,1037.9,1441,1029.4z"/>
			<path d="M1440.9,1119c0,0,0.1-0.1,0.1-0.1v27.9c-2.7-6-7.4-10.5-13.3-13.2l0-15.9c0.8,0.2,1.6,0.3,2.4,0.5
				c-0.4-5.8-1.2-11.8-2.4-18l0-47.3C1435.3,1075.8,1440.1,1098.2,1440.9,1119z"/>
			<path class="st3" d="M1441,1146.9v26.5c-2.8,8.4-7.4,14.9-13.2,19.4l0-59.1C1433.6,1136.4,1438.3,1140.9,1441,1146.9z"/>
			<path d="M1441,1173.3l0,23.6v27.4c-4.2,9-8.6,17.8-13.2,26.6l0-22.7c6.3-12.7,9.5-20.3,9.3-20.2c-2.3,1.6-5.5,2.5-9.3,2.9l0-18.2
				C1433.5,1188.2,1438.2,1181.8,1441,1173.3z"/>
			<path class="st0" d="M1441,1224.4l0,218.2c-4-0.6-8.4-0.7-13-0.3l-0.1-191.4C1432.4,1242.2,1436.8,1233.3,1441,1224.4z"/>
			<path d="M1440.9,1442.6v13.9c-4-0.5-8.3-0.5-13,0l0-14.1C1432.6,1441.9,1436.9,1442,1440.9,1442.6z"/>
			<path class="st1" d="M1440.9,1456.4l0,203.2l-101.2,165.2l-176,70.6c-4.4-3.1-8.1-6.7-11.1-10.7c-3.1-4.1-5.3-8.3-6.9-12.5
				l172.9-68.1l109.4-170.3l-0.1-177.3C1432.6,1455.9,1436.9,1456,1440.9,1456.4z"/>
			<path class="st2" d="M1437.1,1208c0.2-0.1-3.1,7.5-9.3,20.2l0-17.2C1431.6,1210.5,1434.8,1209.6,1437.1,1208z"/>
			<path class="st3" d="M1430.1,1118.3c-0.8-0.2-1.6-0.4-2.4-0.5l0-17.5C1428.9,1106.5,1429.7,1112.5,1430.1,1118.3z"/>
			<path class="st1" d="M1427.9,1456.4l0.1,177.3l-109.4,170.3l-172.9,68.1c-1.3-3.4-2-6.9-2.4-10.5l166.3-66.1l108.9-157l0.1-180.5
				c1.2-0.3,2.4-0.6,3.6-0.8C1424.1,1456.9,1426,1456.6,1427.9,1456.4z"/>
			<path class="st0" d="M1427.4,533.7c3,5.2,6.5,9.6,10.7,12.8c-3.7,3.8-7.3,8.7-10.6,14.4L1427.4,533.7z"/>
			<path d="M1427.9,1442.3l0,14.1c-1.9,0.2-3.8,0.5-5.8,0.9c-1.2,0.2-2.4,0.5-3.6,0.8v-14.3c0.4-0.1,0.8-0.2,1.1-0.2
				C1422.5,1442.9,1425.3,1442.5,1427.9,1442.3z"/>
			<path class="st2" d="M1427.8,1250.9l0.1,191.4c-2.6,0.2-5.4,0.6-8.2,1.2c-0.4,0.1-0.8,0.2-1.1,0.2l0.1-176
				C1421.7,1262.2,1424.8,1256.6,1427.8,1250.9z"/>
			<path d="M1427.8,1228.2l0,22.7c-3,5.7-6,11.3-9.2,16.8l0-21.7C1422.2,1239.4,1425.2,1233.4,1427.8,1228.2z"/>
			<path class="st2" d="M1427.8,1210.9l0,17.2c-2.6,5.2-5.6,11.2-9.1,17.8l0-34.8C1421.9,1211.3,1425,1211.3,1427.8,1210.9z"/>
			<path d="M1427.7,1192.7l0,18.2c-2.8,0.3-5.9,0.4-9.1,0.3l0-13.4C1421.9,1196.6,1425,1194.9,1427.7,1192.7z"/>
			<path class="st3" d="M1427.7,1133.6l0,59.1c-2.8,2.2-5.9,3.9-9.1,5.1l0-66.8C1421.9,1131.5,1424.9,1132.4,1427.7,1133.6z"/>
			<path d="M1427.7,1117.8l0,15.9c-2.8-1.3-5.8-2.2-9.1-2.6l0-14.2C1421.7,1116.9,1424.8,1117.2,1427.7,1117.8z"/>
			<path class="st3" d="M1427.7,1100.3l0,17.5c-2.9-0.6-6-0.9-9-0.9l0-49.5C1422.7,1078.8,1425.7,1089.8,1427.7,1100.3z"/>
			<path d="M1427.7,1053l0,47.3c-2-10.4-5-21.5-9-32.9l0-38.4c0.9,2.2,1.8,4.5,2.7,6.8c1.9-3.8,4-7.5,6.2-11.2l0,25.8
				c-0.2,0.3-0.4,0.7-0.6,1C1427.3,1051.8,1427.5,1052.4,1427.7,1053z"/>
			<path class="st3" d="M1427.7,1053c-0.2-0.6-0.4-1.1-0.6-1.7c0.2-0.3,0.4-0.6,0.6-1V1053z"/>
			<path class="st0" d="M1427.5,821.3l0.1,203.2c-2.2,3.7-4.3,7.5-6.2,11.2c-0.9-2.2-1.8-4.5-2.7-6.8l0.1-196
				C1421.7,829,1424.6,825.1,1427.5,821.3z"/>
			<path d="M1427.5,801.8l0,19.5c-2.9,3.8-5.8,7.7-8.7,11.7l0-19.3c2.8-4.5,5.7-8.6,8.5-11.9H1427.5z"/>
			<path d="M1427.5,781.1l0,20.7h-0.3c-2.2-5.2-5.1-11.2-8.4-17.7l0-22.1C1422,768.4,1424.9,774.8,1427.5,781.1z"/>
			<path class="st2" d="M1427.5,743.1l0,38c-2.6-6.3-5.5-12.7-8.7-19.1l0-33.1C1421.3,733.9,1424.2,738.6,1427.5,743.1z"/>
			<path d="M1427.5,712.6l0,30.4c-3.3-4.5-6.1-9.2-8.7-14.2l0-63.5C1419.6,681.9,1422.3,698.1,1427.5,712.6z"/>
			<path class="st0" d="M1427.4,594.7l0.1,117.9c-5.1-14.5-7.9-30.7-8.6-47.2l0-18.6C1419.6,628.7,1422.6,610.7,1427.4,594.7z"/>
			<path d="M1427.4,561l0,33.8c-4.8,16-7.8,33.9-8.5,52l0-68.5C1421.5,571.9,1424.3,566.1,1427.4,561z"/>
			<path class="st2" d="M1427.4,533.7l0,27.2c-3,5.2-5.9,11-8.5,17.3l0-65.9C1420.9,520.1,1423.7,527.5,1427.4,533.7z"/>
			<path d="M1427.3,497.6l0,36.2c-3.6-6.3-6.4-13.7-8.5-21.4l0-37.4c2.6,2.3,5.4,4.5,8.4,6.6L1427.3,497.6z"/>
			<path class="st2" d="M1427.3,375.9l0.1,105.7c-3-2.1-5.8-4.4-8.4-6.6l0-88.9l-104.4-138.9L754,69.2L605.2,245.9v1535.9
				l189.6,218.6l333.3-132.5c0.7,3.4,1.7,6.8,3.1,10.2l-353.3,139.2l-189.7-231.7V235.2C639.8,174.9,690,111.2,743.6,51.2
				l575.6,180.8L1427.3,375.9z"/>
			<path class="st3" d="M1427.2,801.8c-2.8,3.3-5.6,7.5-8.5,11.9l0-29.6C1422.1,790.6,1425,796.6,1427.2,801.8z"/>
			<path class="st3" d="M1314.6,247.1L1419,386l0,88.9c-1.5-1.3-2.8-2.6-4.1-3.9c-0.9,11.5,0.3,26.9,4.1,41.3l0,65.9
				c-16.9,41.4-23.1,105.3-0.1,150.6l0,33.1c-15.3-30.8-35.6-60.4-47.6-67.3c-9-5.1-33.4-6.6-64.3-5.4l0-130.6
				c51.2,1,95.2-44.7,95.2-80.8c0-24.7-15.2-43.1-36.1-53.7c12.6-61.6-28.6-97.5-76.8-102.2c-39.9-46.7-111.9-52.4-168.3-29.4
				l-220.9-71.1l-85.2,96.7v142.4l-8.2-2.4v297.9c-5.3,17.9-8.3,37-8.3,56.8c0,20.5,3.4,40,9.7,58.2l2.5,184.4l0.1,118.5l1.3,199.2
				l0,158.8l-0.1,12.5v75.3l2.2-0.8v84.2l91.3,88l7.7,8l195.5-78.8c13.6,32.9,23.7,66.6,28.9,98.9c-8.9,17.4-12.8,33.1-9.8,48.1
				l-333.3,132.5l-189.6-218.6V245.9L754,69.2L1314.6,247.1z"/>
			<path d="M1418.9,474.9l0,37.4c-3.8-14.4-5-29.8-4.1-41.3C1416.1,472.3,1417.5,473.6,1418.9,474.9z"/>
			<path d="M1418.9,578.3l0,68.5c-0.3,6.2-0.3,12.4,0,18.6l0,63.5C1395.8,683.6,1401.9,619.7,1418.9,578.3z"/>
			<path class="st0" d="M1418.9,646.8l0,18.6C1418.6,659.2,1418.6,653,1418.9,646.8z"/>
			<path d="M1418.8,762l0,22.1c-15.5-30.1-40.5-69.7-54-77.3c-6.9-3.8-28.9-4.5-57.8-3v-14.5c30.9-1.2,55.3,0.2,64.3,5.4
				C1383.2,701.6,1403.6,731.2,1418.8,762z"/>
			<path class="st3" d="M1418.8,784.1l0,29.6c-4.2,6.6-8.4,13.8-12.7,19.5c-10.5-24.9-35.7-66.7-50.3-82.7
				c-10.6-3.8-28.6-5-48.9-4.1v-42.6c28.9-1.5,50.9-0.8,57.8,3C1378.3,714.4,1403.3,754,1418.8,784.1z"/>
			<path d="M1418.8,813.7l0,19.3c-21.8,29.8-44.7,64.4-58.6,89.4c22.9,34,43.8,70.6,58.5,106.6l0,38.4
				c-20.6-59.4-65.7-129.8-111.8-188.1v-16.8c23.6,28.8,42.7,52.9,42.7,52.9l51-76.5c0,0-46.2-78.6-47.3-78.9
				c-16.6-4.9-31.9-6.5-46.4-6.1v-7.4c20.3-0.9,38.3,0.3,48.9,4.1c14.6,16,39.8,57.7,50.3,82.7
				C1410.3,827.5,1414.6,820.3,1418.8,813.7z"/>
			<path class="st0" d="M1418.8,833l-0.1,196c-14.8-36-35.6-72.7-58.5-106.6C1374.1,897.4,1396.9,862.8,1418.8,833z"/>
			<path class="st3" d="M1418.7,1067.4l0,49.5c-10.9-0.1-22.2,3.1-31.2,9.1c-4.3-6.9-9.5-13.2-15.6-18.6
				c-13.4-35.4-36.4-78.2-64.9-121.8l0-106.2C1353,937.6,1398.1,1008,1418.7,1067.4z"/>
			<path d="M1418.7,1116.9l0,14.2c-7.9-1.1-17,0.4-25.9,5.2c8.3,20.6,6,43.5-4.8,60.9c10.5,4,21.4,4.2,30.7,0.6l0,13.4
				c-16-0.6-35-5.6-35-5.6s-40.7,18.1-76.8,14.9l0-7.9c53.2-0.6,75.1-11.8,76.5-54c1.4-43.8-37.2-62.6-76.5-63.7v-7.5
				c15.1,0,33.4,4.9,53.7,16.2c10.2,5.7-16.8-43.3-53.7-100.8v-17.2c28.5,43.6,51.5,86.4,64.9,121.8c6.1,5.4,11.3,11.7,15.6,18.6
				C1396.4,1119.9,1407.8,1116.7,1418.7,1116.9z"/>
			<path class="st3" d="M1418.7,1131l0,66.8c-9.3,3.6-20.2,3.4-30.7-0.6c10.8-17.4,13.2-40.3,4.8-60.9
				C1401.7,1131.5,1410.7,1129.9,1418.7,1131z"/>
			<path class="st2" d="M1418.6,1211.2l0,34.8c-21.8,41.1-61.4,107.1-111.7,154.5l0-43.9l46-52.4l-1-27.6l-45-24.4v-31.8
				c36,3.2,76.8-14.9,76.8-14.9S1402.6,1210.6,1418.6,1211.2z"/>
			<path d="M1418.6,1246l0,21.7c-31.3,55.5-70.1,105-111.7,142.6v-9.8C1357.2,1353.2,1396.9,1287.1,1418.6,1246z"/>
			<path class="st3" d="M1418.6,1267.7l-0.1,176c-37.2,8.3-55.2,35.8-70.7,67.9c-12.9,26.7-26.5,51.3-40.4,74.1l-0.6-0.4l0-175
				C1348.5,1372.8,1387.3,1323.2,1418.6,1267.7z"/>
			<path d="M1418.5,1443.8v14.3c-30.2,7.9-49.7,40.6-58.8,59.1c-99.4,202.3-222,284.2-216.5,344.5l-15.3,6.1
				c-3-15,0.9-30.8,9.8-48.1c-5.3-32.3-15.3-65.9-28.9-98.9l12.8-5.2c11.2,29.5,19.5,60.1,23.7,90.6c17.9-28.9,47.2-62.6,80.6-104.9
				c-3-8.4-5.9-16.5-8.8-24.2l7.4-3c0.5-0.1,1.2-0.5,2.2-1.3c2,6.4,4,12.9,6,19.7c24-30.8,49.7-65.9,74.6-106.9
				c13.9-22.8,27.5-47.5,40.4-74.1C1363.4,1479.5,1381.3,1452,1418.5,1443.8z"/>
			<path class="st1" d="M1418.5,1458.1l-0.1,180.5l-108.9,157l-166.3,66.1c-5.5-60.3,117.1-142.2,216.5-344.5
				C1368.9,1498.7,1388.4,1466,1418.5,1458.1z"/>
			<path class="st2" d="M1400.6,838.9l-51,76.5c0,0-19.1-24.1-42.7-52.9l0-108.6c14.5-0.4,29.8,1.2,46.4,6.1
				C1354.5,760.3,1400.6,838.9,1400.6,838.9z"/>
			<path class="st3" d="M1306.9,1094.9c39.2,1.1,77.9,19.8,76.5,63.7c-1.4,42.2-23.3,53.4-76.5,54V1094.9z"/>
			<path class="st2" d="M1306.9,1002.8c36.9,57.5,63.9,106.5,53.7,100.8c-20.3-11.3-38.6-16.2-53.7-16.2L1306.9,1002.8z"/>
			<path d="M1351.9,1276.7l1,27.6l-46,52.4v-7.8l40.9-46l-0.6-23.9c-13.2-7.6-26.7-14.9-40.3-21.9v-4.8L1351.9,1276.7z"/>
			<path class="st3" d="M1347.2,1279l0.6,23.9l-40.9,46v-39.9c3.4-3.9,6.7-7.9,10-11.8l-1-10.2l-9.1-4.8v-25.2
				C1320.5,1264.1,1333.9,1271.4,1347.2,1279z"/>
			<path d="M1316,1287l1,10.2c-3.3,4-6.6,7.9-10,11.8v-5.2l3.7-4.2l-0.6-7.6l-3.2-1.7v-8.1L1316,1287z"/>
			<polygon class="st2" points="1310.1,1292 1310.6,1299.7 1306.9,1303.9 1306.9,1290.3 			"/>
			<path class="st0" d="M1307,426c39.4-0.2,77.2,16.3,77.2,51.2c0,28.8-28.5,61-67.2,67.1c12.9-16.4,24.3-31,36-38.5
				c-19.2,2.2-32.8,13.6-46,28.2L1307,426z"/>
			<path class="st3" d="M1306.9,1585.4l0.6,0.4c-24.9,40.9-50.6,76.1-74.6,106.9c-2-6.8-4-13.4-6-19.7
				C1241.5,1661.9,1306.9,1585.4,1306.9,1585.4z"/>
			<path class="st0" d="M1254.1,339.7l52.9,54.9v20.8c-5.2,0.8-10.3,2.1-15.2,3.8v-13.1l-43.5-56.3l-17.6-5.7
				C1238.6,342.1,1246.5,340.7,1254.1,339.7z"/>
			<path d="M1307,415.4V426c-5.1,0-10.1,0.3-15.2,0.9l0-7.7C1296.7,417.5,1301.8,416.2,1307,415.4z"/>
			<path class="st0" d="M1307,426l0,108.1c-5,5.5-9.9,11.5-15.1,17.6l0-124.8C1296.8,426.4,1301.9,426.1,1307,426z"/>
			<path d="M1307,534.1v24.6c-0.4,0-0.8,0-1.3,0c-4.4,5.5-9,11-13.8,16.3v-23.3C1297,545.6,1302,539.6,1307,534.1z"/>
			<path class="st2" d="M1307,558.8l0,130.6c-4.9,0.2-9.9,0.5-15.1,0.8l0-115.1c4.8-5.4,9.4-10.9,13.8-16.3
				C1306.1,558.7,1306.5,558.8,1307,558.8z"/>
			<path d="M1306.9,689.4v14.5c-4.8,0.2-9.9,0.6-15.1,0.9l0-14.6C1297,689.8,1302.1,689.6,1306.9,689.4z"/>
			<path class="st3" d="M1306.9,703.8v42.6c-4.9,0.2-9.9,0.5-15.1,1l0-42.6C1297.1,704.4,1302.1,704.1,1306.9,703.8z"/>
			<path d="M1306.9,746.4v7.4c-5.1,0.1-10.1,0.5-15.1,1.1v-7.5C1297,747,1302,746.7,1306.9,746.4z"/>
			<path class="st2" d="M1306.9,753.9l0,108.6c-4.9-5.9-9.9-12.1-15-18.2l0-89.3C1296.8,754.4,1301.8,754,1306.9,753.9z"/>
			<path d="M1306.9,862.5v16.8c-5-6.3-10-12.5-15-18.5l0-16.5C1297,850.4,1302.1,856.6,1306.9,862.5z"/>
			<path class="st3" d="M1306.9,879.3l0,106.2c-4.8-7.4-9.8-14.9-15-22.3l0-102.4C1296.9,866.8,1301.9,873,1306.9,879.3z"/>
			<path d="M1306.9,985.5v17.2c-4.8-7.6-9.9-15.3-15-23l0-16.5C1297.1,970.7,1302.1,978.1,1306.9,985.5z"/>
			<path class="st2" d="M1306.9,1002.8l0,84.6c-5.4,0-10.4,0.6-14.9,1.8l0-109.4C1297.1,987.5,1302.1,995.2,1306.9,1002.8z"/>
			<path d="M1306.9,1087.4v7.5c-1.2,0-2.4-0.1-3.7-0.1c-4.1,0-7.8,0.8-11.3,2.2l0-7.8C1296.5,1088,1301.5,1087.4,1306.9,1087.4z"/>
			<path class="st3" d="M1306.9,1094.9v117.7c-1.6,0-3.2,0-4.9,0c-3.6,0-6.9-0.6-10-1.8l0-113.8c3.4-1.4,7.2-2.2,11.3-2.2
				C1304.5,1094.8,1305.7,1094.8,1306.9,1094.9z"/>
			<path d="M1306.9,1212.6l0,7.9c-5.1-0.5-10.1-1.3-14.9-2.8v-6.9c3.1,1.2,6.4,1.8,10,1.8
				C1303.7,1212.6,1305.3,1212.6,1306.9,1212.6z"/>
			<path d="M1306.9,1252.3v4.8c-3.6-1.8-7.1-3.7-10.7-5.4l-4.2,1.2l0-4.1l4.4-1.2l1.3,0.7l0.3-0.7L1306.9,1252.3z"/>
			<path class="st3" d="M1306.9,1257.1v25.2l-10.4-5.5l-4.5,1.2v-25.2l4.2-1.2C1299.8,1253.4,1303.3,1255.2,1306.9,1257.1z"/>
			<path d="M1306.9,1282.3v8.1l-12.7-6.8c-0.7,0.3-1.5,0.5-2.2,0.7v-6.2l4.5-1.2L1306.9,1282.3z"/>
			<path class="st2" d="M1306.9,1303.9l-14.9,16.8l0-36.5c0.8-0.2,1.5-0.4,2.2-0.7l12.7,6.8V1303.9z"/>
			<path d="M1292,1320.7l14.9-16.8v5.2c-4.9,5.7-9.9,11.3-14.9,16.9V1320.7z"/>
			<path class="st3" d="M1306.9,1309.1v39.9l-14.9,16.7l0-39.7C1297,1320.4,1302,1314.7,1306.9,1309.1z"/>
			<polygon points="1306.9,1348.9 1306.9,1356.7 1292,1373.6 1292,1365.7 			"/>
			<path class="st2" d="M1306.9,1356.7l0,43.9c-4.8,4.6-9.8,9-14.8,13.2l0-40.1L1306.9,1356.7z"/>
			<path d="M1306.9,1400.5v9.8c-4.9,4.4-9.9,8.7-14.8,12.8v-9.4C1297.1,1409.5,1302,1405.1,1306.9,1400.5z"/>
			<path class="st2" d="M1306.9,1410.3l0,175c0,0-65.4,76.6-80,87.5c-1.5-4.8-3.1-9.6-4.6-14.2l69.8-76.2l0-159.4
				C1297,1419.1,1302,1414.8,1306.9,1410.3z"/>
			<path class="st2" d="M1296.5,1247.5l-4.4,1.2v-31c4.8,1.4,9.8,2.3,14.9,2.8v31.8l-8.8-4.8l-0.3,0.7L1296.5,1247.5z"/>
			<path class="st0" d="M1292.1,1423.1l0,159.4l-69.8,76.2c-2.9-8.5-5.9-16.6-8.9-24.3c16.9-20.6,43.3-45.9,54.9-65.5v-127.7
				C1276.2,1435.6,1284.2,1429.6,1292.1,1423.1z"/>
			<path d="M1292.1,1413.7v9.4c-7.9,6.5-15.8,12.5-23.8,18v-9.9C1276.4,1426,1284.3,1420.1,1292.1,1413.7z"/>
			<path class="st2" d="M1292,1373.6l0,40.1c-7.7,6.4-15.7,12.3-23.8,17.6v-48.1l20.2-5.6L1292,1373.6z"/>
			<polygon points="1292,1365.7 1292,1373.6 1288.5,1377.7 1268.3,1383.3 1268.3,1376.9 1286.6,1371.7 			"/>
			<path class="st3" d="M1292,1326l0,39.7l-5.4,6.1l-18.4,5.1v-25.3c0.6-0.2,1.2-0.5,1.8-0.8C1277.3,1342.4,1284.7,1334.2,1292,1326
				z"/>
			<path d="M1292,1320.7v5.3c-7.3,8.2-14.7,16.4-21.9,24.7c-0.6,0.3-1.2,0.6-1.8,0.8v-3.9L1292,1320.7z"/>
			<path class="st2" d="M1292,1284.2l0,36.5l-23.8,26.9V1305l16.3-18.5C1286.8,1285.3,1289.5,1284.9,1292,1284.2z"/>
			<path d="M1292,1278.1v6.2c-2.6,0.7-5.2,1.1-7.4,2.2l-16.3,18.5v-6l16.8-18.9L1292,1278.1z"/>
			<polygon class="st3" points="1292,1252.8 1292,1278.1 1285.1,1280 1268.3,1298.9 1268.3,1259.6 			"/>
			<polygon points="1292,1248.7 1292,1252.8 1268.3,1259.6 1268.3,1255.2 			"/>
			<path class="st2" d="M1292,1217.7v31l-23.8,6.5v-53.2c3.1,4.3,7.1,8,12.2,10.8C1284.1,1214.9,1288,1216.5,1292,1217.7z"/>
			<path d="M1292,1210.8v6.9c-4-1.2-7.9-2.8-11.5-4.8c-5.1-2.8-9.1-6.5-12.2-10.8v-23.1C1272.3,1194,1280.2,1206.3,1292,1210.8z"/>
			<path class="st3" d="M1292,1097l0,113.8c-11.8-4.5-19.7-16.8-23.8-31.9v-49.4C1272.3,1114.4,1280.2,1101.9,1292,1097z"/>
			<path d="M1292,1089.2l0,7.8c-11.8,4.9-19.7,17.4-23.7,32.5v-23.7C1273.2,1097.8,1281.4,1092,1292,1089.2z"/>
			<path class="st2" d="M1291.9,979.7l0,109.4c-10.6,2.8-18.7,8.6-23.7,16.7v-161C1276.3,956.3,1284.2,968.1,1291.9,979.7z"/>
			<path d="M1291.9,963.2l0,16.5c-7.7-11.7-15.7-23.4-23.7-34.9v-14.5C1276.4,941.2,1284.3,952.2,1291.9,963.2z"/>
			<path class="st3" d="M1291.9,860.8l0,102.4c-7.6-11-15.5-22-23.7-32.9v-96.8C1276,842,1283.9,851.2,1291.9,860.8z"/>
			<path d="M1291.9,844.3l0,16.5c-8-9.6-15.9-18.7-23.7-27.3v-17.3C1276,825.2,1284,834.8,1291.9,844.3z"/>
			<path class="st2" d="M1291.9,755l0,89.3c-7.9-9.5-15.9-19.1-23.6-28.1V759C1276,757.3,1283.9,755.9,1291.9,755z"/>
			<path d="M1291.9,747.4v7.5c-8,0.9-15.9,2.3-23.6,4v-8.8C1276.1,749,1284.1,748.1,1291.9,747.4z"/>
			<path class="st3" d="M1291.9,704.8l0,42.6c-7.8,0.7-15.8,1.6-23.6,2.8v-43.4C1276.4,706,1284.3,705.3,1291.9,704.8z"/>
			<path d="M1291.9,690.2l0,14.6c-7.6,0.5-15.5,1.2-23.6,2V692C1276.3,691.3,1284.2,690.6,1291.9,690.2z"/>
			<path class="st0" d="M1291.8,575.1l0,115.1c-7.6,0.5-15.5,1.1-23.6,1.9v-94.2C1276.8,590.9,1284.6,583.1,1291.8,575.1z"/>
			<path d="M1291.8,551.7v23.3c-7.3,8.1-15.1,15.8-23.6,22.7v-20.7C1277,569,1284.7,560.2,1291.8,551.7z"/>
			<path class="st0" d="M1291.8,426.9l0,124.8c-7.2,8.5-14.8,17.2-23.6,25.3V431.2h1.6C1276.9,429.2,1284.3,427.8,1291.8,426.9z"/>
			<path d="M1291.8,419.2l0,7.7c-7.5,0.8-14.9,2.3-21.9,4.3C1276.4,426,1283.8,422,1291.8,419.2z"/>
			<path class="st0" d="M1291.8,406.1v13.1c-7.9,2.8-15.4,6.8-21.9,12h-1.6v-13.4l-35.8-52.6l-34.3-10.3c11-4.5,21.8-8.1,32.4-10.8
				l17.6,5.7L1291.8,406.1z"/>
			<path class="st0" d="M1254.1,339.7c56.7-6.9,99.5,16.9,94.2,77.8c-13.3-3.5-27.7-4.4-41.3-2.2v-20.8L1254.1,339.7z"/>
			<path d="M1272.4,322.5c-27.5-23.8-75.9-32.2-121.7-20.3l-29.7-9.6c56.4-23,128.4-17.2,168.3,29.4c48.2,4.7,89.4,40.6,76.8,102.2
				c20.9,10.6,36.1,29,36.1,53.7c0,36.1-44,81.8-95.2,80.8v-24.6c13.2-14.6,26.8-26,46-28.2c-11.6,7.5-23.1,22.1-36,38.5
				c38.6-6.1,67.2-38.3,67.2-67.1c0-35-37.8-51.4-77.2-51.2v-10.7c13.7-2.2,28-1.4,41.3,2.2c5.3-60.9-37.5-84.7-94.2-77.8l-6-6.2
				l-10.8-3.5C1248.6,326,1260.4,323.4,1272.4,322.5z"/>
			<path class="st0" d="M1150.7,302.2c45.8-11.9,94.2-3.5,121.7,20.3c-12.1,0.9-23.9,3.5-35.1,7.6L1150.7,302.2z"/>
			<path class="st2" d="M1268.3,1441.2v127.7c-11.7,19.6-38,44.9-54.9,65.5c-19.4-49-43-84-79.8-113.2c4.1-1.6,6.3-2.7,6.3-3.2
				l0-34.6c4,0.4,7.9,0.5,11.7,0.5C1189.2,1484,1229.3,1468.2,1268.3,1441.2z"/>
			<path d="M1268.3,1431.3v9.9c-38.9,27-79,42.8-116.8,42.8c-3.8,0-7.7-0.2-11.7-0.5l0-10.3c70.9,10.7,87.6-19.5,111.6-31.9
				C1257.1,1438.2,1262.7,1434.9,1268.3,1431.3z"/>
			<path class="st2" d="M1268.3,1383.3v48.1c-5.6,3.6-11.2,6.9-16.9,9.9c-24,12.4-40.6,42.6-111.6,31.9l0.1-366.5
				c4.2,0.4,7.8,0.1,10.4-1c-3-0.2-6.6-1-10.4-2.2v-24c31.6,2.1,57.7-0.2,69.8-7.4c-19.9,2.3-43.9,2.1-69.8-0.5l0.1-237
				c9.3,2.4,19.8,3.6,31.2,2c14.7-2.1,56.3,49.7,97.1,108.3v161c-2.3,3.7-3.9,7.8-4.8,12.3c-5.1,25.3-10.9,62.4,4.8,83.9v53.2
				l-3.3,0.9l-64.4,73.1l1,27.9l54.5,29.6L1268.3,1383.3z"/>
			<polygon points="1268.3,1376.9 1268.3,1383.3 1255.9,1386.7 1201.5,1357.1 1200.5,1329.2 1264.9,1256.1 1268.3,1255.2 
				1268.3,1259.6 1267.2,1259.9 1206.7,1328.4 1207.6,1353 1258,1379.7 			"/>
			<path class="st3" d="M1268.3,1351.5v25.3l-10.3,2.9l-50.3-26.8l-1-24.5l60.6-68.5l1-0.3v39.3l-30.7,34.6l0.6,10.5l19.1,10.5
				C1261.1,1353.5,1264.9,1352.9,1268.3,1351.5z"/>
			<path d="M1268.3,1347.6v3.9c-3.4,1.3-7.1,1.9-10.9,3l-19.1-10.5l-0.6-10.5l30.7-34.6v6l-25.6,29c-0.6,2.3,0.3,5,0,7.6l15.8,8.8
				L1268.3,1347.6L1268.3,1347.6z"/>
			<path class="st2" d="M1268.3,1305v42.7l-0.1,0.1l-9.7,2.6l-15.8-8.8c0.3-2.6-0.6-5.3,0-7.6L1268.3,1305z"/>
			<path d="M1268.3,1178.9v23.1c-15.8-21.5-9.9-58.6-4.8-83.9c0.9-4.5,2.5-8.6,4.8-12.3v23.7
				C1264.1,1145.1,1264.1,1163.4,1268.3,1178.9z"/>
			<path class="st3" d="M1268.3,1129.5v49.4C1264.1,1163.4,1264.1,1145.1,1268.3,1129.5z"/>
			<path d="M1268.3,930.3v14.5c-40.8-58.6-82.4-110.4-97.1-108.3c-11.3,1.6-21.9,0.4-31.2-2l0-11.2c5.7,1.4,11.4,2.4,17,2.6
				c-5.7-5.7-11.4-11.1-17-16.2l0-17.5C1183.2,827.2,1228.5,877.3,1268.3,930.3z"/>
			<path class="st3" d="M1268.3,833.5v96.8c-39.7-53-85-103.1-128.2-138.2l0-65.9c36.3-8.2,85.2-15.4,128.2-19.5v43.4
				c-28.6,4.2-55.7,11.3-68.7,19.8C1217.3,781.5,1241.8,804.2,1268.3,833.5z"/>
			<path d="M1268.3,816.2v17.3c-26.4-29.2-50.9-52-68.7-63.5c12.9-8.5,40-15.7,68.7-19.8v8.8c-14.6,3.2-28.9,7.2-43.6,10.7
				C1232.4,775.5,1249.3,794.1,1268.3,816.2z"/>
			<path class="st2" d="M1268.3,759v57.2c-18.9-22.1-35.8-40.7-43.6-46.5C1239.4,766.2,1253.7,762.1,1268.3,759z"/>
			<path d="M1268.3,692v14.7c-43,4.1-91.8,11.3-128.2,19.5v-12.8C1176,703.9,1224.6,696.1,1268.3,692z"/>
			<path class="st2" d="M1268.3,597.8V692c-43.7,4.1-92.2,11.8-128.2,21.4l0-30.6c13.5-18.9,32.4-39.8,54.7-59.3
				C1224.5,625,1248.3,613.8,1268.3,597.8z"/>
			<path d="M1268.3,577.1v20.7c-19.9,16.1-43.7,27.2-73.5,25.7c-22.3,19.6-41.2,40.4-54.7,59.3l0-21.4
				c12.9-16.2,27.4-30.5,41.5-39.5c-9.5-1.9-22.9-5.3-33.6-9.8C1208.9,618.4,1243.3,600.2,1268.3,577.1z"/>
			<path d="M1248.1,333.6l6,6.2c-7.6,0.9-15.5,2.4-23.5,4.4l-13.8-4.4c6.6-3.8,13.4-7.1,20.6-9.7L1248.1,333.6z"/>
			<path class="st0" d="M1150.7,302.2l86.6,27.9c-7.1,2.6-14,5.8-20.6,9.7l-90.5-29.1C1134.2,307.2,1142.5,304.4,1150.7,302.2z"/>
			<path d="M1216.8,339.7l13.8,4.4c-10.6,2.7-21.4,6.3-32.4,10.8l-1.8-0.5C1202.8,348.8,1209.6,343.9,1216.8,339.7z"/>
			<path d="M1226.9,1672.9c-1,0.7-1.7,1.2-2.2,1.3l-7.4,3c-1.6-4.3-3.2-8.5-4.8-12.5l7.1-2.9l2.8-3
				C1223.8,1663.3,1225.4,1668,1226.9,1672.9z"/>
			<path d="M1222.3,1658.7l-2.8,3l-7.1,2.9c-2.8-7.1-5.5-13.9-8.3-20.4l2.3-0.9c2-2.8,4.4-5.8,6.9-8.9
				C1216.4,1642.1,1219.4,1650.2,1222.3,1658.7z"/>
			<path class="st1" d="M1217.2,1677.2c2.9,7.7,5.8,15.8,8.8,24.2c-33.4,42.3-62.7,76-80.6,104.9c-4.2-30.5-12.5-61.1-23.7-90.6
				L1217.2,1677.2z"/>
			<path class="st1" d="M1217.2,1677.2l-95.5,38.4c-1.5-4.1-3.1-8.1-4.8-12.2l95.4-38.8C1214,1668.7,1215.6,1672.9,1217.2,1677.2z"
				/>
			<path class="st0" d="M1126.3,310.7l90.5,29.1c-7.2,4.2-14,9.1-20.4,14.7l-96.4-29C1108.3,319.6,1117.2,314.7,1126.3,310.7z"/>
			<path class="st1" d="M1212.4,1664.6l-95.4,38.8c-3.1-7.6-6.5-15.1-10-22.5l97.1-36.7C1206.9,1650.7,1209.6,1657.5,1212.4,1664.6z
				"/>
			<path d="M1213.3,1634.4c-2.5,3.1-4.9,6.1-6.9,8.9l-2.3,0.9c-22.9-53.9-46.4-88.9-82.6-118.6c4.9-1.7,9-3.2,12-4.3
				C1170.3,1550.4,1194,1585.4,1213.3,1634.4z"/>
			<path class="st1" d="M1204.1,1644.2l-97.1,36.7c-22.6-48-52.3-91.4-83.6-124.3c25.5-7.7,50.2-15.4,70.3-21.8
				c10.8-3.5,20.3-6.6,27.7-9.2C1157.7,1555.3,1181.2,1590.3,1204.1,1644.2z"/>
			<path d="M1196.4,354.4l1.8,0.5c-1.5,0.6-3,1.2-4.5,1.9C1194.6,356,1195.5,355.2,1196.4,354.4z"/>
			<path d="M1181.6,1904.6l-17.9,7c-5.6-2.9-10.7-6.2-15.2-10l15.2-6.1C1168.8,1899,1174.8,1902.1,1181.6,1904.6z"/>
			<path class="st0" d="M1181.6,621.9c-14.1,9-28.6,23.4-41.5,39.5l0-122.8l-35.9-10.7c-67.5-56-74.7-140.9-17.3-192.1
				c4.2-3.8,8.6-7.2,13.1-10.4l96.4,29c-0.9,0.8-1.8,1.6-2.7,2.4c1.5-0.6,3-1.3,4.5-1.9l34.3,10.3l35.8,52.6v13.4v145.9
				c-24.9,23.1-59.4,41.3-120.3,35C1158.6,616.6,1172,620,1181.6,621.9z"/>
			<path d="M1139.9,1071.5c25.9,2.6,49.9,2.8,69.8,0.5c-12.2,7.2-38.3,9.5-69.8,7.4L1139.9,1071.5z"/>
			<path d="M1163.7,1895.4l-15.2,6.1c-3.4-2.9-6.4-6.1-9-9.5c-3.6-4.7-6.3-9.3-8.3-14.1l14.5-5.7c1.6,4.2,3.8,8.4,6.9,12.5
				C1155.6,1888.7,1159.3,1892.3,1163.7,1895.4z"/>
			<path d="M1121.1,292.7l29.7,9.6c-8.3,2.1-16.5,5-24.5,8.5l-25.4-8.1C1107.3,298.8,1114.1,295.5,1121.1,292.7z"/>
			<path d="M1145.7,1872.2l-14.5,5.7c-1.4-3.4-2.4-6.7-3.1-10.2l15.3-6.1C1143.6,1865.3,1144.4,1868.8,1145.7,1872.2z"/>
			<path d="M1150.3,1105.6c-2.7,1.1-6.3,1.4-10.4,1l0-3.2C1143.8,1104.5,1147.3,1105.3,1150.3,1105.6z"/>
			<path d="M1140.1,661.4l0,21.4c-9.7,13.6-16.7,26.2-20.1,36.6c6.1-2.1,12.8-4.1,20.1-6v12.8c-8.9,2-17.1,4.1-24.2,6.2
				c-3.4,11.5-6.4,23.4-9.1,35.5c10.9,6.9,22,15,33.3,24.1l0,17.5c-12.3-11.3-24.3-21.3-35.7-29.6c-1.8,9-3.3,18.1-4.6,27.3h-0.8
				v-58.1c2.3-8.3,4.5-15.7,4.8-18.4c-1.7,0.5-3.4,1-5.2,1.5l-0.4-13.7c2.8-0.9,5.6-1.8,8.3-2.8
				C1114.2,698.4,1126.2,678.8,1140.1,661.4z"/>
			<path class="st3" d="M1140.1,726.2l0,65.9c-11.3-9.1-22.4-17.3-33.3-24.1c2.7-12.2,5.7-24.1,9.1-35.5
				C1123,730.3,1131.2,728.3,1140.1,726.2z"/>
			<path d="M1139.9,1071.5l0,7.9c-11.8-0.8-24.3-2.2-37.2-4.1l-0.1-8.8C1115.3,1068.6,1127.8,1070.3,1139.9,1071.5z"/>
			<path class="st2" d="M1139.9,1079.4v24c-11.1-3.5-24.9-10.5-37-18.2l-0.1-10C1115.6,1077.2,1128.1,1078.6,1139.9,1079.4z"/>
			<path d="M1139.9,1103.3l0,3.2c-10.5-1-24.6-6.5-36.9-14.2l-0.1-7.2C1115.1,1092.8,1128.8,1099.9,1139.9,1103.3z"/>
			<path class="st2" d="M1139.9,1106.6l-0.1,366.5c-9.5-1.4-19.9-3.6-31.5-6.6l-5.3-374.2
				C1115.3,1100.1,1129.4,1105.6,1139.9,1106.6z"/>
			<path d="M1139.8,1473.1l0,10.3c-2.2-0.2-4.5-0.4-6.8-0.7c-7.9,3.6-16,6.8-24.3,9.7l-0.1-8.3c3.8-1.6,7.5-3.3,11-5.2
				c-3.7-1-7.4-2.1-11.1-3.4l-0.1-9.1C1119.9,1469.5,1130.3,1471.7,1139.8,1473.1z"/>
			<path d="M1130.4,879.2c5.2-16.4,3-36.7-0.9-43.2C1145.1,845,1137.3,878.8,1130.4,879.2z"/>
			<path d="M1100.9,302.5l25.4,8.1c-9.1,4-17.9,8.9-26.2,14.8l-22.1-6.6C1084.9,312.7,1092.6,307.3,1100.9,302.5z"/>
			<path d="M1133.5,1521.2c-3,1.2-7.1,2.7-12,4.3c-4-3.3-8.2-6.5-12.5-9.7l-0.2-12.1C1117.7,1509.4,1125.9,1515.2,1133.5,1521.2z"/>
			<path d="M1121.8,1715.6l-12.8,5.2c-1.7-4-3.3-8-5.1-12l13.1-5.3C1118.6,1707.5,1120.2,1711.5,1121.8,1715.6z"/>
			<path class="st2" d="M900.2,221.6l220.9,71.1c-7,2.9-13.8,6.1-20.2,9.9l-194.3-62.4l-74.8,83.5l-0.1,142l-16.6-4.8V318.3
				L900.2,221.6z"/>
			<path d="M1117,1703.4l-13.1,5.3c-3.3-7.6-6.9-15.2-10.6-22.7l13.8-5.2C1110.5,1688.3,1113.8,1695.8,1117,1703.4z"/>
			<path class="st0" d="M1119.6,1479c-3.6,1.8-7.2,3.6-11,5.2l-0.1-8.5C1112.2,1476.9,1115.9,1478,1119.6,1479z"/>
			<path class="st1" d="M1109,1515.9l0.2,11.4c-5.6,2.6-10.8,4.7-15.8,6.3c-13.1,4.2-25.2,5.3-42.5,4l-12.2,0.1l-25,9.1
				c-15.5-15-31.2-27.4-46.4-36.4c39.6,3.3,79.4-0.3,117.7-10.6C1093.6,1505.1,1101.6,1510.5,1109,1515.9z"/>
			<path d="M885.9,1292c1.2,2.4-1.2,197.9-1.2,197.9c70.9,19.5,162.3,20.6,224-5.8l0.1,8.3c-4,1.4-8,2.8-12,4
				c4.2,2.4,8.3,4.9,12.2,7.4l0.2,12.1c-7.4-5.5-15.4-10.8-24-16.1c-38.3,10.3-78.2,13.9-117.7,10.6c15.3,9,31,21.3,46.4,36.4
				l-13.4,4.9c-17.7-18-36-33-54-43.8c-16-2.4-50.5-6-65.3-10.7c0.6-0.6,0.3-124.3-0.2-247.9v-246.9c21.9,11.4,32.5,6,53.1,5
				c-19-10.9-36.9-23-53.1-36.5v-12.3c20.2,18.6,43.8,34,69.3,44.3c20.2,8.1-42.5,22.1-64.3,12.3c0,0,3.6,269.6,2.4,268.3
				c78.9,85,145.7,162.7,216.1,181.9c1.3,0.4,2.6,0.7,3.9,1l0.1,9.1C1037.1,1451.7,963.2,1380.9,885.9,1292z"/>
			<path class="st2" d="M1108.9,1720.8l-195.5,78.8l-7.7-8l-91.3-88v-84.2l16.7-6.1l0,85l87.3,86l185.5-75.4
				C1105.6,1712.8,1107.3,1716.8,1108.9,1720.8z"/>
			<path class="st0" d="M1108.4,1475.6l0.1,8.5c-61.6,26.3-153,25.2-224,5.8c0,0,2.4-195.5,1.2-197.9
				C963.2,1380.9,1037.1,1451.7,1108.4,1475.6z"/>
			<path class="st2" d="M1103,1092.3l5.3,374.2c-1.3-0.3-2.6-0.7-3.9-1c-70.4-19.2-137.2-96.9-216.1-181.9
				c1.2,1.2-2.4-268.3-2.4-268.3c21.8,9.7,84.5-4.3,64.3-12.3c-25.5-10.2-49.1-25.6-69.3-44.3V815.7
				c44.6,24.8,114.5,45.2,207.8,17.1c6.4-1.9,5.4-13.2,10.5-14.7l0.2,16.2c-1,19.9-2.6,65,1.2,83.1l2.1,149
				c-54.2-9.3-111.5-27.4-153.7-52.2c26.4,27,79.2,46.4,130.9,56.9C1084.7,1078.9,1093.3,1086.3,1103,1092.3z"/>
			<path class="st0" d="M1094.3,525c4.3,2.2,8.8,4.2,13.5,5.8c-1.2-1-2.4-1.9-3.5-2.9l35.9,10.7l0,122.8
				c-13.9,17.4-25.9,37-33.6,54.4c-2.7,1-5.4,1.9-8.3,2.8l-4.6-171.1l-35.6-11.8c6-6.2,11.6-11.8,16.9-16.6L1094.3,525z"/>
			<path d="M1107,1680.9l-13.8,5.2c-23.1-46.9-52.6-90.8-84.2-125.2c4.8-1.5,9.6-2.9,14.3-4.3
				C1054.7,1589.5,1084.4,1632.9,1107,1680.9z"/>
			<path d="M1107.7,530.8c-4.7-1.7-9.2-3.6-13.5-5.8l9.9,3C1105.4,528.9,1106.5,529.9,1107.7,530.8z"/>
			<path d="M1104.2,527.9l-9.9-3c-5.4-2.8-10.6-5.9-15.5-9.3c-1.3,1.1-2.6,2.3-3.9,3.6l-15-4.5c2.9-2.6,5.8-5.1,8.6-7.3
				c-50.5-45.1-50.5-133.8,7.2-186.5c0.8-0.7,1.5-1.4,2.3-2l22.1,6.6c-4.5,3.2-8.9,6.7-13.1,10.4
				C1029.5,387.1,1036.7,471.9,1104.2,527.9z"/>
			<path class="st0" d="M1103.8,1708.8l-185.5,75.4l-87.3-86l0-85l35.4-12.9l0,81.6l64.4,65.5l162.3-61.3
				C1097,1693.6,1100.5,1701.1,1103.8,1708.8z"/>
			<path d="M1102.9,1085.2l0.1,7.2c-9.7-6-18.2-13.5-23.2-21.3c-51.8-10.5-104.5-29.9-130.9-56.9c42.3,24.8,99.6,42.9,153.7,52.2
				l0.1,8.8c-6-0.9-12.1-2-18.2-3.2C1089.6,1076.3,1096,1080.8,1102.9,1085.2z"/>
			<path class="st2" d="M1102.7,1075.2l0.1,10c-6.9-4.3-13.2-8.9-18.4-13.1C1090.6,1073.2,1096.7,1074.3,1102.7,1075.2z"/>
			<path class="st2" d="M1130.4,879.2c6.9-0.4,14.7-34.2-0.9-43.2C1133.4,842.5,1135.5,862.8,1130.4,879.2z M1099.3,834.3l-0.2-16.2
				c0.8-0.2,1.8-0.2,2.9,0.1c5.7,1.6,19.4,11.3,38,16.2l-0.1,237c-12.1-1.2-24.6-2.9-37.3-5.1l-2.1-149c0,0.1,0,0.2,0,0.2
				c7.7-17.8,6.5-74.5-0.9-89.9C1099.6,829.4,1099.4,831.6,1099.3,834.3z"/>
			<path class="st1" d="M1121.5,1525.6c-7.5,2.6-16.9,5.7-27.7,9.2l-0.4-1.2c5-1.6,10.2-3.7,15.8-6.3l-0.2-11.4
				C1113.3,1519.1,1117.5,1522.3,1121.5,1525.6z"/>
			<path class="st0" d="M906.5,240.1l194.3,62.4c-8.2,4.8-15.9,10.2-22.9,16.3l-144.5-43.4l-67.5,77.8l0.1,122.5l-34.3-10l0.1-142
				L906.5,240.1z"/>
			<path d="M1099.7,827.8c7.3,15.4,8.5,72.1,0.9,89.9c0-0.1,0-0.2,0-0.2l-1.2-83.1C1099.4,831.6,1099.6,829.4,1099.7,827.8z"/>
			<path class="st2" d="M1098.6,732.4c1.7-0.5,3.4-1,5.2-1.5c-0.4,2.7-2.5,10.1-4.8,18.4v-5.1L1098.6,732.4z"/>
			<path d="M1099.3,834.3l1.2,83.1C1096.7,899.3,1098.3,854.2,1099.3,834.3z"/>
			<path d="M1099.7,807.3c6.8,2.5,15.3,4.4,20.5,10.9c6.8,1.5,13.4,3.4,19.8,5l0,11.2c-18.6-4.9-32.4-14.6-38-16.2
				c-1.2-0.3-2.1-0.4-2.9-0.1l-0.1-9.3v-1.5H1099.7z"/>
			<path d="M1098.9,808.9l0.1,9.3c-5.1,1.5-4,12.8-10.5,14.7c-93.3,28.1-163.2,7.7-207.8-17.1v-9.5c57.9,30.8,136.1,39.3,204,17.7
				c0.9-9.5,3.4-30.1,4.3-36.5c-66.7,19.5-151.8,8.9-208.3-32.1v-10.5c55.3,41.4,134.9,58,210.8,34c0.5-5.5,4.1-18.3,7.3-29.5v58.1
				V808.9z"/>
			<path class="st2" d="M1098.9,744.2v5.1c-3.2,11.2-6.8,24.1-7.3,29.5c-75.9,24.1-155.5,7.5-210.8-34v-46.7
				c23.4,42.2,118.5,62.6,217.8,34.2L1098.9,744.2z"/>
			<path class="st0" d="M1093.7,547.6l4.6,171.1c-50,15.9-124.8,20.8-169.9,2.6c24.5-60.5,85.2-139.4,129.7-185.4L1093.7,547.6z"/>
			<path class="st0" d="M1078.8,515.6c4.9,3.5,10,6.6,15.5,9.3l-19.4-5.8C1076.2,517.9,1077.5,516.8,1078.8,515.6z"/>
			<path class="st1" d="M1093.4,1533.6l0.4,1.2c-20.1,6.4-44.9,14.1-70.3,21.8c-3.2-3.4-6.4-6.6-9.7-9.8l25-9.1l12.2-0.1
				C1068.2,1538.9,1080.3,1537.8,1093.4,1533.6z"/>
			<path class="st2" d="M1093.3,1686.1L931,1747.4l-64.4-65.5l0-81.6l14.3-5.2v3.9h0c0,0,63.9-18.7,128.2-38.1
				C1040.7,1595.3,1070.2,1639.2,1093.3,1686.1z"/>
			<path class="st3" d="M1089.2,787.5c-0.9,6.4-3.5,27-4.3,36.5c-67.9,21.5-146.1,13-204-17.7v-50.9
				C937.4,796.4,1022.5,807,1089.2,787.5z"/>
			<path class="st2" d="M933.4,275.4l144.5,43.4c-0.8,0.7-1.5,1.3-2.3,2c-57.6,52.7-57.7,141.4-7.2,186.5c-2.8,2.3-5.6,4.7-8.6,7.3
				l-179.1-53.5v18.7l-14.8-4.3l-0.1-122.5L933.4,275.4z"/>
			<path d="M1059.9,514.7l15,4.5c-5.2,4.9-10.9,10.5-16.9,16.6l-15-5C1048.8,525,1054.5,519.6,1059.9,514.7z"/>
			<path class="st2" d="M1082.9,2071.1l-11.3,27.2c-1.8,4.2-3.8,7.1-8.4,7.1c-1,0-2.2-0.5-2.8-0.9l1.3-4.4l0.7,0
				c0.7,0.7,1.7,1.2,2.7,1.4h0.1c3.2-0.2,5-4.9,6-7.6l1.3-3.5l-9.1-23.5c-0.9-2.2-1.7-2.8-2.9-2.9l-1-0.1v-1.6
				c2.2,0.1,4.3,0.2,6.4,0.2c2.2,0,4.3-0.1,6.4-0.2l0,1.6l-2.1,0.1c-1.1,0.1-1.8,0.3-1.8,1.5c0,0.8,0.2,1.6,0.5,2.3l6.3,16.2l6.6-17
				c0.2-0.4,0.3-0.9,0.3-1.4c0-1.1-0.8-1.5-2.3-1.6l-1.4-0.1v-1.6c1.8,0.1,3.5,0.2,5.2,0.2c1.8,0,3.5-0.1,5.3-0.2l0,1.6l-1.5,0.1
				C1086.3,2064.2,1085,2066,1082.9,2071.1z"/>
			<path class="st2" d="M1046.2,2073.6c2,0,4.1-0.1,6.2-0.2c0-5.4-1.9-9.9-5.9-9.9c-4.1,0-7.3,3.1-7.3,8.9v0.8
				C1041.6,2073.6,1044,2073.6,1046.2,2073.6z M1049.1,2087.1c2.7,0,4.8-1.4,6.9-2.7l0.7,0.6l-1.1,2c-0.4,0.7-5.1,3.3-8.8,3.2
				c-8.4,0-12.8-5.6-12.8-13.5c0-5.7,1.5-9,4-11.1c1.1-0.9,2.2-1.7,3.4-2.3c1.9-0.9,3.5-1.6,5.4-1.5c6,0,10.5,4.1,10.5,10.7
				c0,0.8,0,1.6-0.1,2.4c-3.3,0.6-6.7,0.8-10,0.8l-8.1,0C1039.1,2082.4,1042.3,2087.1,1049.1,2087.1z"/>
			<path class="st2" d="M1031.9,2089.1c-1.4-0.1-3-0.2-4.5-0.2c-1.5,0-3.1,0.1-4.4,0.2l0-16.5c0-4.8-2.6-7.4-6.3-7.4
				c-1.9,0-3.8,1-5.1,2.2l-1-1.1l3.5-3.2c1.2-1.1,2.3-1.4,4.5-1.4c6.5,0,9.1,3.8,9.1,10.1l0,11.2c-0.1,1.1,0,2.3,0.3,3.4
				c0.2,0.5,0.8,0.8,1.8,0.8l2.3,0.2V2089.1z"/>
			<path d="M1013.7,1546.8c3.2,3.2,6.5,6.4,9.7,9.8c-4.8,1.4-9.6,2.9-14.3,4.3c-2.9-3.2-5.8-6.2-8.8-9.2L1013.7,1546.8z"/>
			<path class="st2" d="M1014.3,2089.1c-1.9-0.1-4.1-0.2-6.9-0.2c-2.7,0-4.9,0.1-6.9,0.2v-1.8l2.5-0.2c1,0,1.6-0.3,1.8-0.8
				c0.2-1.1,0.3-2.2,0.3-3.4v-13.1c0-1.9-0.1-3.1-0.4-3.6c-0.3-0.5-0.9-0.6-2.1-0.6h-2v-1.6c3-0.4,5.9-1.2,8.7-2.4l0.5,0.2l0,5h0.1
				l0.6-0.5l1,1.1c-1,1-1.7,2.2-1.7,3.2l0,12.4c-0.1,1.1,0,2.3,0.3,3.4c0.2,0.5,0.8,0.8,1.8,0.8l2.5,0.2V2089.1z"/>
			<path d="M880.8,698.2v-44c24.4-15.8,52.2-23.8,80-21c25.4-38.6,55.2-75.3,82.1-102.3l15,5c-44.4,46-105.2,124.9-129.7,185.4
				c45.1,18.2,119.9,13.4,169.9-2.6l0.4,13.7C999.3,760.7,904.2,740.4,880.8,698.2z M883.4,669.7c2,20.5,14.4,35.5,32.9,45.8
				c9.4-23,22.4-47.4,37.4-71.2C929.2,644.3,904.8,653.5,883.4,669.7z"/>
			<path class="st2" d="M980.7,2083c0,3.6,3.9,5,7.2,5c3.5,0,6.5-2.1,6.5-5.3c0-1.9-1-3.4-2.7-3.9c-2.4-0.6-5.5-1.3-8.1-2.4
				c-2.7-1.1-4.7-2.8-4.7-6.4c0-6.3,5.2-8.5,10.4-8.5c2.5,0.1,4.9,0.6,7.1,1.5c-0.2,2.1-0.2,4.2-0.3,6.6h-1.6v-1.4
				c0-3-3.2-4.8-6.4-4.8c-4.7,0-5.4,2.7-5.4,4.7c0,2.5,1.8,3.9,6,4.6c6.6,1.2,9.7,2.9,9.7,7.5c0,6.4-6.1,9.8-12.3,9.8
				c-2.6,0-5-0.4-7.8-1.4c0.6-2.6,0.6-5.4,0.6-8.1h1.7L980.7,2083z"/>
			<path class="st2" d="M968.6,2048.8c1.6,0,3.1,1.6,3.1,3.3c0,1.7-1.5,3.2-3.1,3.2c-1.6,0-3-1.5-3-3.2
				C965.5,2050.4,967,2048.8,968.6,2048.8z"/>
			<path class="st2" d="M971.4,2086.3c0.2,0.5,0.8,0.8,1.8,0.8l2.5,0.2l0,1.8c-2-0.1-4.2-0.2-6.9-0.2c-2.7,0-4.9,0.1-6.9,0.2v-1.8
				l2.5-0.2c0.9-0.1,1.6-0.3,1.8-0.8c0.2-1.1,0.4-2.2,0.3-3.4l0-13.1c0-1.9-0.1-3.2-0.4-3.6c-0.3-0.5-0.9-0.6-2-0.6h-2v-1.6
				c3-0.4,5.9-1.2,8.6-2.4l0.5,0.2l0,21.2C971.1,2084.1,971.2,2085.2,971.4,2086.3z"/>
			<path class="st2" d="M883.4,669.7c21.4-16.2,45.9-25.5,70.3-25.4c-15,23.8-28,48.2-37.4,71.2
				C897.8,705.2,885.4,690.3,883.4,669.7z"/>
			<path class="st2" d="M935.7,2089c-0.6,0-1.1,0-1.7-0.1l0.1-2.5c0.6,0,1.1,0,1.6,0c2.8,0,6-0.2,9-1.7c6.1-3,8.8-9,8.8-16.8
				c0-14.4-7.8-17.1-17.8-17.1c-0.6,0-1.3,0-2,0l0-2.2c2.3,0,4.4-0.1,6-0.1h0.7c11,0,19.1,6.7,19.1,17.8c0,9.6-5.2,17.8-11.9,20.7
				c-3.4,1.4-7.1,2.1-10.8,2H935.7z"/>
			<path class="st2" d="M929.4,2085.9c1.2,0.3,3,0.4,4.7,0.5l-0.1,2.5c-1.7-0.1-3.6-0.1-5.4-0.1c-2.5,0-4.9,0.1-7.5,0.2v-1.4
				l1.7-0.9c0.9-0.5,1.4-1.9,1.4-3.4l0.1-27.6c0-2.2-0.1-3.7-0.5-4.4c-0.3-0.6-1-0.8-2.3-0.9l-2.2-0.2v-1.8
				c3.7,0.1,7.2,0.2,10.9,0.2c1.2,0,2.5,0,3.7,0l0,2.2c-1.6,0-3.3,0.1-4.3,0.4L929.4,2085.9z"/>
			<path class="st0" d="M933.9,1007.4c-20.6,1-31.1,6.4-53.1-5v-31.5C897,984.3,914.8,996.5,933.9,1007.4z"/>
			<path class="st2" d="M884.4,2079c3,0.1,5.7-1.7,6.8-4.5l1.2,0.5c-1.4,3.7-5.3,5.8-9,5.8c-6.6,0-10.8-5.1-10.8-11.9
				c0-7.2,4.5-12.1,11.5-12.1c2.7,0.1,5.3,0.6,7.8,1.5l0,6.2h-1.4c0-3.9-2.1-6.2-6-6.2c-5.5,0-8.1,4.8-8.2,10.1
				C876.3,2073.4,879.1,2079,884.4,2079z"/>
			<path class="st2" d="M880.8,1249.3v345.8l-14.3,5.2l-0.3-642.4c4.7,4.5,9.6,8.8,14.6,13v31.5c-0.3-0.2-0.7-0.4-1.1-0.6
				C879.8,1001.2,880.4,1125.2,880.8,1249.3z"/>
			<path d="M880.8,1002.4v246.9c-0.5-124.1-1.1-248.1-1.1-247.4C880.1,1002,880.5,1002.2,880.8,1002.4z"/>
			<path d="M880.8,958.6v12.3c-5-4.2-9.9-8.5-14.6-13l0-14C870.9,949,875.7,953.9,880.8,958.6z"/>
			<path class="st2" d="M880.8,815.7v142.8c-5.1-4.7-10-9.6-14.6-14.7l-0.1-137C870.7,809.8,875.6,812.8,880.8,815.7z"/>
			<path d="M880.8,806.3v9.5c-5.2-2.9-10.2-5.9-14.7-8.9v-9.2C870.9,800.7,875.8,803.6,880.8,806.3z"/>
			<path class="st3" d="M880.8,755.4v50.9c-5.1-2.7-10-5.5-14.7-8.6l0-54.3C870.8,747.7,875.7,751.7,880.8,755.4z"/>
			<path d="M880.8,744.9v10.5c-5.2-3.7-10.1-7.7-14.7-12v-10.7C870.8,737,875.7,741,880.8,744.9z"/>
			<path class="st2" d="M880.8,698.2v46.7c-5.1-3.8-10-7.9-14.7-12.1l0-52.3c3.4-2.7,6.7-4.8,9.4-6
				C874.9,682.9,876.8,690.9,880.8,698.2z"/>
			<path d="M880.8,654.1v44c-4.1-7.3-6-15.3-5.3-23.8c-2.7,1.2-6,3.3-9.4,6l0-15.4C870.8,661,875.8,657.4,880.8,654.1z"/>
			<path class="st2" d="M880.8,479.9v174.2c-5.1,3.3-10,6.9-14.8,10.8L866,475.6L880.8,479.9z"/>
			<path class="st0" d="M866.2,957.9l0.3,642.4l-35.4,12.9l0.3-695.9C841.3,931.8,853,945.3,866.2,957.9z"/>
			<path d="M866.2,943.9l0,14c-13.2-12.6-25-26.1-34.8-40.7l0-22.9C840.5,911.9,852.3,928.7,866.2,943.9z"/>
			<path class="st2" d="M866.1,806.9l0.1,137c-14-15.2-25.8-32-34.8-49.5l0-115.2C838.7,786.3,850.3,796.5,866.1,806.9z"/>
			<path d="M866.1,797.7v9.2c-15.9-10.4-27.4-20.6-34.6-27.7v-10C841.4,779.8,853.1,789.4,866.1,797.7z"/>
			<path class="st3" d="M866.1,743.4l0,54.3c-13-8.3-24.7-17.9-34.6-28.6l0-33.2c3.5-8.3,7.3-16,10.5-20.6
				C848.8,725.7,856.9,735.1,866.1,743.4z"/>
			<path d="M866.1,732.7v10.7c-9.2-8.4-17.3-17.7-24.1-28.1c-3.1,4.6-7,12.3-10.5,20.6l0-32.5c9.9-14.8,21.6-27.8,34.5-38.5l0,15.4
				c-9,7.1-19,18.5-21.9,28.8C850.8,717.6,858.1,725.4,866.1,732.7z"/>
			<path class="st2" d="M866.1,680.4l0,52.3c-8-7.3-15.3-15.1-21.9-23.5C847.1,698.9,857.1,687.5,866.1,680.4z"/>
			<path class="st0" d="M866,475.6l0.1,189.4c-13,10.7-24.7,23.7-34.5,38.5l0.1-237.9L866,475.6z"/>
			<path class="st2" d="M883.3,2087.2c9.7,0,17.7-8.2,17.7-18.5c0-10.3-8-18.5-17.7-18.5c-9.6,0-17.5,8.3-17.5,18.5
				C865.7,2078.8,873.6,2087.2,883.3,2087.2z M863.3,2068.7c0-11.6,9-21.1,20-21.1c11.1,0,20.2,9.4,20.2,21.1
				c0,11.6-9.1,21.1-20.2,21C872.3,2089.7,863.3,2080.2,863.3,2068.7z"/>
			<path class="st2" d="M831.6,465.6l-0.1,237.9c-6.3,9.4-11.8,19.5-16.5,30.2v-273L831.6,465.6z"/>
			<path d="M831.5,703.5l0,32.5c-3.4,7.9-6.5,16.4-8.4,23.4c2.6,3.4,5.4,6.6,8.4,9.8v10c-5.8-5.8-8.8-9.5-8.8-9.5
				c-3.3,6.8-5.8,13.9-7.6,21.2v-57.2C819.7,723,825.3,712.9,831.5,703.5z"/>
			<path class="st3" d="M831.5,736l0,33.2c-3-3.2-5.8-6.4-8.4-9.8C825.1,752.4,828.2,743.9,831.5,736z"/>
			<path class="st2" d="M831.5,779.2l0,115.2c-7.7-14.9-13.3-30.3-16.6-45.7l0.2-53.8v-3.9c1.8-7.3,4.3-14.4,7.6-21.2
				C822.7,769.7,825.7,773.4,831.5,779.2z"/>
			<path d="M831.5,894.4l0,22.9c-6.4-9.5-12-19.4-16.7-29.7l0.1-38.8C818.1,864.1,823.8,879.5,831.5,894.4z"/>
			<path class="st2" d="M831.4,917.2l-0.3,695.9l-16.7,6.1V983.2l0.3-95.7C819.4,897.8,825,907.7,831.4,917.2z"/>
			<path class="st2" d="M815.1,790.9v3.9l-0.2,53.8C810.7,829,810.5,809.4,815.1,790.9z"/>
			<path d="M815.1,733.7v57.2c-4.5,18.5-4.3,38.1-0.2,57.8l-0.1,38.8c-2.4-5.3-4.6-10.7-6.5-16.3L806.8,767v-10.8
				C809.1,748.4,811.9,740.9,815.1,733.7z"/>
			<path class="st3" d="M815.1,460.7v273c-3.2,7.2-5.9,14.8-8.2,22.5V458.3L815.1,460.7z"/>
			<path class="st3" d="M814.4,983.2v636.1l-2.2,0.8v-75.3l0.1-12.5l0-158.8l-1.3-199.2l-0.1-118.5l-2.5-184.4
				c1.9,5.5,4.1,11,6.5,16.3L814.4,983.2z"/>
			<path d="M806.8,767l1.4,104.2c-6.3-18.3-9.7-37.7-9.7-58.2c0-19.8,2.9-38.9,8.3-56.8V767z"/>
			<path class="st2" d="M380.4,1820.8c71.8,26.7,118.5,66,88.9,106c-3.2,4.3-6.7,7.9-10.5,10.8l-8.7-10.2c0.1-0.1,0.3-0.2,0.4-0.3
				c1.4-1.1,2.7-2.2,4-3.6c0.9-0.9,1.7-1.8,2.6-2.8c1.6-1.9,2.9-3.8,3.9-5.8l0,0c0.3-0.7,0.6-1.3,0.9-2c0.1-0.3,0.2-0.7,0.4-1
				c4.1-11.8-2.1-25.3-16.9-39.2c-0.7-0.7-1.5-1.4-2.3-2.1c-1.6-1.4-3.2-2.8-4.9-4.2c0,0,0,0,0,0c-0.9-0.7-1.7-1.4-2.6-2.1
				c-0.5-0.3-0.9-0.7-1.4-1c-4.2-3.1-8.8-6.2-13.8-9.3c-1.1-0.7-2.2-1.4-3.4-2.1c-1.7-1-3.5-2.1-5.3-3.1c-1.2-0.7-2.4-1.4-3.7-2.1
				c-1.2-0.7-2.5-1.4-3.8-2c-11.5-6.1-24.6-12.1-39-17.8l0,0l-13.5-15.9c5.5,1.6,10.7,3.2,15.4,4.8h0c-7.9-16.3-13-38.4-16.6-63.4
				c-10.7-75.2-7.5-177.5-23.6-233.3c0,0,0,0,0,0c0,0,0,0,0,0c-9.2,9.6-18,19.3-25.6,28.4v-13c18.2-25.3,45.4-51.2,67.7-67.3
				c0,0,0,0,0,0c2.6-1.9,5.2-3.6,7.6-5.2c0.6-0.4,1.2-0.8,1.8-1.2c1.2-0.8,2.4-1.5,3.5-2.1c1.7-1,3.4-1.9,5-2.8l2.9,7.6
				c-11,6-33.3,25.6-55.1,47.5C363.9,1568.8,345.6,1746,380.4,1820.8z"/>
			<path class="st2" d="M445.5,1872.7c14.8,13.8,20.9,27.4,16.9,39.2c-0.1,0.3-0.2,0.7-0.4,1c-0.3,0.7-0.6,1.3-0.9,2l0,0
				c-1,2-2.3,3.9-3.9,5.8c-0.8,1-1.7,1.9-2.6,2.8c-1.3,1.3-2.7,2.5-4,3.6c-0.1,0.1-0.3,0.2-0.4,0.3L365.3,1827
				c14.4,5.7,27.4,11.7,39,17.8c1.3,0.7,2.5,1.4,3.8,2c1.2,0.7,2.5,1.4,3.7,2.1c1.8,1,3.6,2.1,5.3,3.1c1.1,0.7,2.3,1.4,3.4,2.1
				c5,3.1,9.6,6.2,13.8,9.3c0.5,0.3,0.9,0.7,1.4,1c0.9,0.7,1.8,1.4,2.6,2.1c0,0,0,0,0,0c1.7,1.4,3.4,2.8,4.9,4.2
				C444,1871.4,444.7,1872.1,445.5,1872.7z"/>
			<path class="st2" d="M462.4,1911.9c4-11.8-2.1-25.3-16.9-39.2C460.3,1886.6,466.4,1900.1,462.4,1911.9z"/>
			<path class="st2" d="M462,1912.9c-0.3,0.7-0.6,1.3-0.9,2C461.4,1914.3,461.7,1913.6,462,1912.9z"/>
			<path d="M450.2,1927.3l8.7,10.2c-31.5,24.3-80.3,3.7-105.4,14.9c-27.9,12.5-44.4,40.8-112.8,43c-56.6,1.8-53.6-16.6-92.4-18.2
				c-33.2-1.4-76,24.4-117.4-6.6c-64.2-48.1-10.7-117,4.6-176.6c40.7-158.9,25.7-340,196.3-358.3c21.2-20.5,46.4-39.5,69.7-54.3
				v14.8c-0.7,0.5-1.3,0.9-2,1.4h0c-2.3,1.6-4.5,3.3-6.8,5h0c-1.7,1.3-3.4,2.6-5.2,3.9c0,0,0,0,0,0c-2.9,2.2-5.8,4.4-8.6,6.7
				c0,0,0,0,0,0c-1.7,1.3-3.5,2.7-5.2,4.1c0,0,0,0,0,0c-40.4,32.2-79.9,70.6-90.9,96.5c1.5-15.8,10.2-32.8,23.2-49.7
				c4.3-5.6,9.1-11.2,14.3-16.8h0c-6,1.4-11.8,3-17.3,4.8c-1.1,0.4-2.2,0.7-3.3,1.1c-1.1,0.4-2.2,0.8-3.2,1.2
				c-2.1,0.8-4.2,1.6-6.2,2.5c-2.1,0.8-4.1,1.8-6,2.7c-2,0.9-3.9,1.9-5.8,2.9h0c-3.8,2-7.4,4.1-10.9,6.3c-0.9,0.6-1.8,1.1-2.6,1.7
				c-3.4,2.3-6.7,4.6-9.9,7.1c-0.8,0.6-1.6,1.2-2.4,1.9c-3.1,2.5-6.1,5.2-8.9,7.9c-0.7,0.7-1.4,1.4-2.1,2.1
				c-69.9,70-65.1,202.6-96,308.5c-15.5,53-53.6,112.8-13.1,154.2c2.4,2.5,5.2,4.9,8.2,7.3c0.4,0.3,0.8,0.6,1.2,0.9
				c0.8,0.6,1.6,1.1,2.4,1.6s1.6,1,2.5,1.5c1.2,0.7,2.5,1.4,3.8,2h0c1.7,0.8,3.5,1.5,5.3,2.1c29.2,10.2,67.6-1.6,92.9-0.3
				c14.8,0.7,24.2,3.2,32.7,6.1c0.4,0.1,0.7,0.2,1,0.4c0.7,0.2,1.4,0.5,2.1,0.7c1,0.4,2,0.7,3.1,1.1c0.7,0.2,1.4,0.5,2.1,0.7
				c0.7,0.2,1.4,0.5,2,0.7c0.4,0.1,0.7,0.2,1.1,0.4c0.4,0.1,0.7,0.2,1.1,0.4c10.7,3.6,23,6.6,45.6,6c16-0.4,30.9-3.7,44.7-8.4
				c1.2-0.4,2.5-0.9,3.7-1.3h0c1.8-0.7,3.7-1.4,5.5-2.1c0,0,0,0,0,0c1.2-0.5,2.4-1,3.5-1.4c20.6-8.6,38.1-19.3,52.3-25.8
				C383.6,1929,423.2,1947.9,450.2,1927.3L450.2,1927.3z"/>
			<path class="st2" d="M461.1,1914.9c-1,2-2.3,3.9-3.9,5.8c-0.8,1-1.7,1.9-2.6,2.8c0.9-0.9,1.7-1.8,2.6-2.8
				C458.8,1918.8,460.1,1916.9,461.1,1914.9z"/>
			<path class="st2" d="M450.6,1927c-0.1,0.1-0.3,0.2-0.4,0.3h0C450.3,1927.2,450.4,1927.1,450.6,1927z"/>
			<path class="st1" d="M281.3,1576.2C281.3,1576.2,281.3,1576.2,281.3,1576.2c0.6-1.2,1.3-2.6,2.1-4c0.5-0.9,1.1-1.9,1.8-2.9
				c0.3-0.5,0.6-1,1-1.5c1-1.5,2.1-3.1,3.3-4.8c3.4-4.8,7.5-10,12.1-15.5l0,204.1l50.3,59.5c-48.1-14.1-119.2-28.2-139.9-23.9
				c51.8,8,97.8,19.7,135.7,33.2c1.7,0.6,3.4,1.2,5.1,1.8c0,0,0,0,0,0c1.7,0.6,3.4,1.2,5,1.9c2.5,1,5,1.9,7.5,2.9l0,0l84.9,100.3
				c-27,20.6-66.5,1.7-101,17.5c-14.2,6.5-31.7,17.2-52.3,25.8c-1.2,0.5-2.4,1-3.5,1.4c0,0,0,0,0,0c-1.8,0.7-3.6,1.4-5.5,2.1h0
				c-1.2,0.4-2.5,0.9-3.7,1.3c-13.7,4.7-28.6,8-44.7,8.4c-22.6,0.6-35-2.4-45.6-6c-0.4-0.1-0.7-0.2-1.1-0.4
				c-0.4-0.1-0.7-0.2-1.1-0.4c-0.7-0.2-1.4-0.5-2-0.7c-0.7-0.2-1.4-0.5-2.1-0.7c-1-0.4-2-0.7-3.1-1.1c-0.7-0.2-1.4-0.5-2.1-0.7
				c-0.3-0.1-0.7-0.2-1-0.4c-8.4-2.8-17.9-5.4-32.7-6.1c-25.4-1.3-63.7,10.5-92.9,0.3c-1.8-0.6-3.5-1.3-5.3-2.1h0
				c-1.3-0.6-2.5-1.3-3.8-2c-0.8-0.5-1.7-1-2.5-1.5c-0.8-0.5-1.6-1.1-2.4-1.6c-0.4-0.3-0.8-0.6-1.2-0.9c-3-2.3-5.8-4.8-8.2-7.3
				c-40.5-41.4-2.4-101.2,13.1-154.2c30.9-105.9,26.1-238.5,96-308.5c0.7-0.7,1.4-1.4,2.1-2.1c2.9-2.8,5.8-5.4,8.9-7.9
				c0.8-0.6,1.6-1.3,2.4-1.9c3.2-2.5,6.5-4.9,9.9-7.1c0.9-0.6,1.7-1.1,2.6-1.7c3.5-2.2,7.1-4.3,10.9-6.3h0c1.9-1,3.8-1.9,5.8-2.9
				c2-0.9,4-1.8,6-2.7c2-0.9,4.1-1.7,6.2-2.5c1.1-0.4,2.1-0.8,3.2-1.2c1.1-0.4,2.2-0.8,3.3-1.1c5.5-1.8,11.2-3.4,17.3-4.8
				c-5.1,5.6-9.9,11.2-14.3,16.8c-13,16.9-21.7,33.9-23.2,49.7c0,0,0,0,0-0.1c0,0,0,0,0,0.1c11-25.9,50.5-64.4,90.9-96.6
				c0,0,0,0,0,0c1.7-1.4,3.5-2.8,5.2-4.1c0,0,0,0,0,0c2.9-2.3,5.8-4.5,8.6-6.7c0,0,0,0,0,0c1.7-1.3,3.4-2.6,5.2-3.9h0
				c2.3-1.7,4.6-3.4,6.8-5h0c0.6-0.5,1.3-0.9,2-1.4l0,138.1C290.8,1549.3,283.2,1563.9,281.3,1576.2z"/>
			<path class="st2" d="M438.3,1866.5c1.7,1.4,3.4,2.8,4.9,4.2C441.6,1869.3,440,1867.9,438.3,1866.5z"/>
			<path class="st2" d="M435.6,1864.4c0.9,0.7,1.8,1.4,2.6,2.1C437.4,1865.8,436.5,1865.1,435.6,1864.4z"/>
			<path class="st2" d="M420.4,1854c5,3.1,9.6,6.2,13.8,9.3C430,1860.3,425.4,1857.1,420.4,1854z"/>
			<path class="st2" d="M411.8,1848.9c1.8,1,3.6,2,5.3,3.1C415.3,1850.9,413.6,1849.9,411.8,1848.9z"/>
			<path class="st2" d="M404.3,1844.8c1.3,0.7,2.5,1.4,3.8,2C406.8,1846.1,405.6,1845.5,404.3,1844.8z"/>
			<path class="st2" d="M360.2,1360.9l27,95h0c-1.6,0.8-3.3,1.7-5,2.8c-1.1,0.7-2.3,1.4-3.5,2.1c-0.6,0.4-1.2,0.8-1.8,1.2
				c-2.5,1.6-5,3.3-7.6,5.2c0,0,0,0,0,0c-22.3,16-49.4,41.9-67.7,67.2l0-138.1c2.7-2,5.4-3.9,8.1-5.7c0.6-0.4,1.1-0.8,1.6-1.1
				c1.1-0.8,2.2-1.5,3.2-2.2c0,0,0,0,0,0c5.4-3.7,10.6-7.1,15.6-10.2h0c1-0.6,2-1.2,2.9-1.8c1.5-0.9,2.9-1.8,4.3-2.6
				c2.3-1.4,4.6-2.7,6.8-3.9c1.8-1,3.5-1.9,5.1-2.7c0.8-0.4,1.6-0.8,2.4-1.2C354.7,1363.2,357.6,1361.9,360.2,1360.9L360.2,1360.9z"
				/>
			<path class="st2" d="M387.2,1455.9L387.2,1455.9l-27-95h0l-1.8-8c-13.8,4-34.5,14.3-56.9,28.5l0-94.8
				c5.2,5.2,10.5,10.2,16.1,15.1l-3.6-14.6c-3.9-4.7-8.1-10.2-12.5-16.4l-0.1-380.3c2,1.6,4.1,3.2,6.4,4.8l3.1-10
				c-3.1-3.2-6.3-6.8-9.4-10.6l-0.1-630L421.3,93.9c94.3-35,192.4-60.7,287.5-93.9l612.9,195.3l9.6,2.5l125.8,159.5l0,63.7
				c-8.2,19.1-12.3,45.3-5.8,72.1c-2.9-0.4-6.5-1.6-10.3-3.4l0-121.2l-121.4-155L835,56.5L710.1,18.2l-52.4,60L543.4,215.8v1583.5
				l212.5,256l3.7-1.9l318.9-123.8l70.1-28.1c4.5,3.8,9.5,7.1,15.2,10l-405.5,157.5c-89.5-34.2-182.6-64.8-272.2-99.3l-27.2-32.1
				c3.8-2.9,7.3-6.4,10.5-10.8c29.6-40-17.2-79.3-88.9-106c-34.8-74.8-16.5-252-45.3-309.8c21.8-21.9,44.2-41.5,55.1-47.5
				L387.2,1455.9z"/>
			<path class="st2" d="M382.2,1458.7c-1.1,0.7-2.3,1.4-3.5,2.1C379.9,1460,381.1,1459.3,382.2,1458.7z"/>
			<path class="st2" d="M376.8,1462c-2.5,1.6-5,3.3-7.6,5.2C371.8,1465.3,374.4,1463.6,376.8,1462z"/>
			<path class="st2" d="M367.3,1815.9L367.3,1815.9c-7.9-16.3-13-38.4-16.6-63.4C354.3,1777.5,359.4,1799.5,367.3,1815.9z"/>
			<path class="st2" d="M367.3,1815.9c-4.8-1.6-10-3.2-15.4-4.8l0,0l-50.3-59.5l0-204.1c7.5-9.1,16.4-18.8,25.6-28.4
				c16.1,55.8,12.9,158.1,23.6,233.3C354.2,1777.5,359.4,1799.5,367.3,1815.9z"/>
			<path d="M351.8,1811.1l13.5,15.9c-2.5-1-5-1.9-7.5-2.9c-1.7-0.6-3.3-1.2-5-1.9c0,0,0,0,0,0c-1.7-0.6-3.4-1.2-5.1-1.8
				c-38-13.5-83.9-25.2-135.7-33.2C232.7,1782.8,303.7,1796.9,351.8,1811.1L351.8,1811.1z"/>
			<path class="st2" d="M358.4,1352.9l1.8,8c-2.6,1-5.5,2.3-8.7,3.9c-0.8,0.4-1.6,0.8-2.4,1.2c-1.6,0.8-3.3,1.8-5.1,2.7
				c-2.2,1.2-4.4,2.5-6.8,3.9c-1.4,0.8-2.8,1.7-4.3,2.6c-1,0.6-1.9,1.2-2.9,1.8h0c-5,3.1-10.2,6.5-15.6,10.2c0,0,0,0,0,0
				c-1.1,0.7-2.2,1.5-3.2,2.2c-0.5,0.4-1.1,0.8-1.6,1.1c-2.7,1.9-5.4,3.8-8.1,5.7v-14.8C323.9,1367.2,344.6,1356.9,358.4,1352.9z"/>
			<path d="M352.8,1822.2c1.7,0.6,3.4,1.2,5,1.9C356.1,1823.5,354.5,1822.8,352.8,1822.2z"/>
			<path class="st2" d="M351.6,1364.7c-0.8,0.4-1.6,0.8-2.4,1.2C350,1365.5,350.8,1365.1,351.6,1364.7z"/>
			<path d="M347.6,1820.4c1.7,0.6,3.4,1.2,5.1,1.8C351.1,1821.6,349.4,1821,347.6,1820.4z"/>
			<path class="st2" d="M350.7,1752.4c-10.7-75.2-7.5-177.5-23.6-233.3c0,0,0,0,0,0C343.2,1574.9,340,1677.2,350.7,1752.4z"/>
			<path class="st2" d="M344.1,1368.7c-2.2,1.2-4.4,2.5-6.8,3.9C339.6,1371.2,341.9,1369.9,344.1,1368.7z"/>
			<path class="st2" d="M333,1375.2c-1,0.6-1.9,1.2-2.9,1.8C331,1376.4,332,1375.8,333,1375.2z"/>
			<path class="st2" d="M327.1,1519.1C327.1,1519.1,327.1,1519.1,327.1,1519.1c-9.2,9.6-18,19.3-25.6,28.4v0
				C309,1538.4,317.9,1528.7,327.1,1519.1z"/>
			<path class="st2" d="M369.2,1467.2c-22.3,16-49.4,41.9-67.7,67.3v0C319.7,1509.1,346.9,1483.2,369.2,1467.2z"/>
			<path class="st2" d="M313.9,1287.1l3.6,14.6c-5.6-4.8-10.9-9.8-16.1-15.1l0-16C305.8,1276.9,310,1282.4,313.9,1287.1z"/>
			<path class="st2" d="M330,1377c-5,3.1-10.2,6.5-15.6,10.2C319.8,1383.5,325.1,1380.1,330,1377z"/>
			<path class="st2" d="M314.4,1387.2c-1.1,0.7-2.2,1.5-3.2,2.2C312.3,1388.6,313.4,1387.9,314.4,1387.2z"/>
			<path class="st2" d="M310.8,885.2l-3.1,10c-2.3-1.5-4.4-3.1-6.4-4.8v-15.8C304.5,878.4,307.7,882,310.8,885.2z"/>
			<path class="st2" d="M309.5,1390.5c-2.7,1.9-5.4,3.8-8.1,5.7v0C304.2,1394.3,306.9,1392.4,309.5,1390.5z"/>
			<path d="M301.5,1534.5v13c-4.6,5.5-8.7,10.8-12.1,15.5c-1.2,1.7-2.3,3.3-3.3,4.8c-0.3,0.5-0.7,1-1,1.5c-0.6,1-1.2,2-1.8,2.9
				c-0.8,1.4-1.5,2.7-2.1,4C283.2,1563.9,290.8,1549.3,301.5,1534.5z"/>
			<path d="M301.5,1534.4L301.5,1534.4c-10.7,14.9-18.3,29.5-20.2,41.8C283.2,1563.9,290.8,1549.3,301.5,1534.4z"/>
			<path d="M301.4,1270.7l0,16c-39.4-40-67.1-93.4-90.7-170.7c-35.4-26.4-66.3-109.6-57.4-149.2c12.4,18.3,32.7,38.8,58.6,58.3
				c-46.1-55-38.2-212.9,8.1-275.2c0,25.1,25.1,119,46.2,149.8c-3.4-10.8-9.7-44.5,10.9-65.2c3.4,12.4,13.6,27.5,24.3,40.2v15.8
				c-11.5-9.4-18.9-20.2-25.8-31.2c-2.1,17.1-3.2,46.3,5.6,62.2c-42.6-21.7-60.6-72.2-66.1-138.6c-19.5,49.3-31.7,189.9,13.4,255
				c-21.4-1.1-43.8-16.3-61.8-41.2c8.6,35.2,21.4,76,41.6,98.1c1.5-10.2,3.8-20.3,7-30.1C212,1110.7,263.2,1216.3,301.4,1270.7z"/>
			<path d="M296.8,1970.6c-1.2,0.5-2.4,1-3.5,1.4C294.5,1971.6,295.6,1971.1,296.8,1970.6z"/>
			<path d="M293.3,1972c-1.8,0.7-3.6,1.4-5.5,2.1C289.7,1973.5,291.5,1972.8,293.3,1972z"/>
			<path d="M287.8,1974.1c-1.2,0.4-2.5,0.9-3.7,1.3C285.3,1975,286.6,1974.6,287.8,1974.1z"/>
			<path d="M220.3,1447.4L220.3,1447.4c-5.1,5.6-9.9,11.2-14.3,16.8C210.3,1458.6,215.1,1453,220.3,1447.4z"/>
			<path d="M206,1464.2c-12.9,16.9-21.7,33.9-23.2,49.7c0,0,0,0,0,0.1C184.3,1498.2,193,1481.1,206,1464.2z"/>
		</g>
		<g>
		</g>
	</g>
</g>
</svg>
